<svg width="161" height="32" viewBox="0 0 161 32" fill="none" xmlns="http://www.w3.org/2000/svg">
<g clip-path="url(#clip0_1680_2712)">
<mask id="mask0_1680_2712" style="mask-type:luminance" maskUnits="userSpaceOnUse" x="0" y="0" width="161" height="32">
<path d="M160.439 0.158203H0.439148V31.8414H160.439V0.158203Z" fill="white"/>
</mask>
<g mask="url(#mask0_1680_2712)">
<path d="M159.736 0.158203H1.13554C0.950857 0.158203 0.773703 0.229779 0.643111 0.357187C0.512518 0.484595 0.439178 0.6574 0.439178 0.837582V31.1557C0.438319 31.2454 0.45569 31.3344 0.4903 31.4176C0.52491 31.5008 0.576058 31.5764 0.640807 31.6401C0.705556 31.7039 0.782626 31.7545 0.86754 31.789C0.952452 31.8236 1.04355 31.8414 1.13554 31.8414H2.75604C2.79767 31.8473 2.84015 31.8419 2.87882 31.8256C2.91748 31.8095 2.9508 31.7832 2.97506 31.7496C2.99932 31.7161 3.01361 31.6767 3.01629 31.6357C3.01899 31.5947 3.00999 31.5538 2.99031 31.5175C2.23386 29.9547 2.12204 28.168 2.67794 26.527C3.88844 22.8888 13.0192 21.2063 13.0192 18.4697C13.0192 15.7331 7.37672 14.1648 7.37672 11.4854C7.37672 8.80603 12.4074 7.04088 18.486 6.06943C14.3989 7.13611 9.37464 8.60914 9.4853 10.7298C9.61548 13.7331 18.896 15.0411 18.896 18.4443C18.896 21.8475 11.3206 23.473 14.5746 26.5016C16.3253 28.127 19.7225 29.9747 24.1935 31.7271C24.315 31.7772 24.4455 31.8031 24.5774 31.8032H159.769C159.861 31.8032 159.952 31.7855 160.037 31.751C160.122 31.7164 160.199 31.6658 160.263 31.6021C160.328 31.5383 160.379 31.4626 160.414 31.3795C160.448 31.2963 160.466 31.2073 160.465 31.1175V0.837582C160.465 0.6574 160.392 0.484595 160.261 0.357187C160.131 0.229779 159.953 0.158203 159.769 0.158203M159.001 30.2096C159.001 30.236 158.996 30.2621 158.985 30.2864C158.975 30.3107 158.959 30.3327 158.939 30.351C158.92 30.3694 158.897 30.3838 158.872 30.3933C158.847 30.4028 158.82 30.4073 158.793 30.4064H23.5752C23.5482 30.4073 23.5213 30.4028 23.496 30.3933C23.4708 30.3838 23.4477 30.3694 23.4284 30.351C23.4089 30.3327 23.3935 30.3107 23.3829 30.2864C23.3724 30.2621 23.367 30.236 23.367 30.2096V1.78998C23.367 1.76359 23.3724 1.73747 23.3829 1.71316C23.3935 1.68886 23.4089 1.66687 23.4284 1.64851C23.4477 1.63014 23.4708 1.61578 23.496 1.60627C23.5213 1.59676 23.5482 1.5923 23.5752 1.59315H158.76C158.787 1.5923 158.814 1.59676 158.839 1.60627C158.864 1.61578 158.887 1.63014 158.907 1.64851C158.927 1.66687 158.942 1.68886 158.952 1.71316C158.963 1.73747 158.968 1.76359 158.968 1.78998L159.001 30.2096Z" fill="#999999"/>
<path d="M40.8152 17.0095L34.3853 8.96484H30.3438V24.1842H34.6V15.8348L41.2772 24.1842H45.0714V8.96484H40.8152V17.0095Z" fill="#999999"/>
<path d="M57.4491 13.6827C56.9302 13.1935 56.3019 12.8284 55.6139 12.616C54.7226 12.3493 53.793 12.225 52.861 12.2478C51.952 12.2354 51.0443 12.3184 50.1536 12.4954C49.4112 12.644 48.6839 12.8564 47.98 13.1304L48.852 16.0383C49.3661 15.841 49.8949 15.6819 50.4335 15.5621C51.0045 15.4428 51.5872 15.3853 52.1712 15.3907C52.8175 15.3399 53.4613 15.5155 53.9869 15.8859C54.1867 16.0647 54.3434 16.2843 54.4458 16.5291C54.5482 16.7739 54.5937 17.0378 54.5792 17.3018V17.5495C53.645 17.247 52.6672 17.0926 51.6831 17.0923C51.0238 17.0814 50.3663 17.1626 49.7307 17.3336C49.1956 17.4705 48.692 17.7054 48.2468 18.0257C47.8377 18.3305 47.5096 18.7269 47.2902 19.1812C47.0492 19.6835 46.9312 20.2334 46.9451 20.7876V20.8321C46.9328 21.3686 47.0394 21.9014 47.2576 22.394C47.4537 22.8286 47.7472 23.2149 48.1167 23.5242C48.4982 23.8397 48.9408 24.0771 49.4182 24.2226C49.9351 24.3868 50.4757 24.4682 51.0192 24.4639C51.7294 24.4804 52.4343 24.3416 53.0822 24.0575C53.6428 23.7992 54.1451 23.4344 54.5595 22.9845V24.1972H58.7508V17.4225C58.7658 16.69 58.6648 15.9598 58.4513 15.2574C58.2612 14.6588 57.9186 14.1171 57.4556 13.6827M54.6311 19.9177C54.6438 20.1805 54.5987 20.4427 54.4988 20.6869C54.3989 20.9312 54.2465 21.1517 54.052 21.3337C53.6347 21.6922 53.0911 21.8788 52.5356 21.8543C52.1504 21.8681 51.7724 21.7489 51.4683 21.5178C51.3254 21.4042 51.2122 21.2593 51.1375 21.0949C51.0629 20.9305 51.029 20.7513 51.0388 20.5717V20.5273C51.031 20.3249 51.0731 20.1235 51.1614 19.9402C51.2497 19.7568 51.3817 19.5967 51.5463 19.4733C51.9611 19.1811 52.4677 19.0396 52.9782 19.0733C53.2822 19.0702 53.5856 19.1 53.8827 19.1622C54.1394 19.208 54.3903 19.2803 54.6311 19.378V19.9177Z" fill="#999999"/>
<path d="M65.6371 9.44043H61.3808V12.4183H59.9556V15.7454H61.3808V20.5264C61.3808 21.9359 61.7388 22.9327 62.4547 23.5296C63.3139 24.1659 64.3781 24.4813 65.4548 24.4185C66.003 24.4228 66.5494 24.361 67.0819 24.2344C67.535 24.1251 67.9723 23.9609 68.3835 23.7454V20.5073C68.134 20.6219 67.8749 20.7154 67.609 20.7867C67.3404 20.8624 67.0622 20.9009 66.7826 20.901C66.6206 20.9252 66.4551 20.9113 66.3 20.8601C66.1448 20.8089 66.0046 20.722 65.891 20.6068C65.7774 20.4917 65.6939 20.3516 65.6474 20.1984C65.601 20.0451 65.5929 19.8832 65.6241 19.7263V15.7454H68.4291V12.4183H65.6241L65.6371 9.44043Z" fill="#999999"/>
<path d="M74.6556 8.31055H70.2236V11.3519H74.6556V8.31055Z" fill="#999999"/>
<path d="M74.572 12.4189H70.3158V24.1779H74.572V12.4189Z" fill="#999999"/>
<path d="M84.6657 12.4189L82.3489 19.2889L80.032 12.4189H75.574L80.3899 24.2668H84.2427L89.0589 12.4189H84.6657Z" fill="#999999"/>
<path d="M99.6821 14.0819C99.1634 13.4841 98.5175 13.005 97.7882 12.6787C96.9352 12.3139 96.0114 12.1362 95.0809 12.1581C94.2632 12.1443 93.4522 12.2964 92.6977 12.6046C91.944 12.9128 91.2636 13.3705 90.7002 13.9485C90.1537 14.5165 89.7242 15.1829 89.4379 15.9105C89.1398 16.677 88.9899 17.4907 88.9958 18.3106V18.355C88.9857 19.2117 89.1491 20.0619 89.4775 20.8567C89.7806 21.5754 90.2354 22.2242 90.8114 22.7614C91.3983 23.311 92.0905 23.7425 92.8484 24.0313C93.6804 24.3358 94.563 24.4865 95.4514 24.4758C96.4518 24.5095 97.4463 24.3099 98.3516 23.8936C99.2569 23.4773 100.048 22.8562 100.658 22.0821L98.3154 20.1773C97.944 20.5588 97.5019 20.869 97.0135 21.0915C96.5764 21.2859 96.1006 21.3835 95.6206 21.3773C95.0227 21.3985 94.4341 21.2316 93.9415 20.901C93.4615 20.5405 93.1331 20.0211 93.0177 19.4407H101.081C101.081 19.2947 101.081 19.1487 101.081 19.009V18.5899C101.088 17.7555 100.965 16.9249 100.716 16.1264C100.485 15.381 100.107 14.6867 99.6038 14.0819M92.9267 17.3328C93.011 16.7591 93.2594 16.2202 93.6425 15.7772C93.8152 15.5888 94.0282 15.4395 94.2665 15.3397C94.5049 15.2399 94.7625 15.192 95.0219 15.1994C95.288 15.1922 95.5524 15.2401 95.7975 15.3396C96.0434 15.4392 96.2649 15.5883 96.4476 15.7772C96.8341 16.2115 97.0632 16.7584 97.0977 17.3328H92.9267Z" fill="#999999"/>
<path d="M114.565 10.3676C113.959 9.88996 113.262 9.53392 112.515 9.31994C111.646 9.07463 110.745 8.9548 109.84 8.9644H103.157V24.2028H107.477V19.8345H109.619C110.525 19.84 111.427 19.7225 112.3 19.4852C113.073 19.2788 113.797 18.9249 114.428 18.444C115.022 17.9829 115.499 17.394 115.821 16.7233C116.171 15.9812 116.341 15.1713 116.322 14.355V14.3105C116.336 13.5341 116.181 12.7636 115.867 12.0501C115.573 11.3979 115.127 10.8217 114.565 10.3676ZM112 14.5391C112.015 14.814 111.963 15.0884 111.85 15.3406C111.737 15.5928 111.566 15.8161 111.349 15.9931C110.829 16.3756 110.185 16.5647 109.534 16.5264H107.484V12.4692H109.515C110.168 12.4279 110.816 12.6073 111.349 12.9772C111.572 13.1593 111.746 13.39 111.859 13.6504C111.973 13.9108 112.021 14.1935 112 14.4756V14.5391Z" fill="#999999"/>
<path d="M127.157 13.6827C126.638 13.1935 126.01 12.8283 125.321 12.616C124.43 12.3493 123.5 12.225 122.568 12.2478C120.893 12.2127 119.23 12.5243 117.687 13.1621L118.56 16.07C119.073 15.8727 119.602 15.7136 120.141 15.5938C120.712 15.4745 121.295 15.417 121.878 15.4224C122.525 15.3733 123.168 15.5488 123.694 15.9177C123.894 16.0964 124.051 16.316 124.153 16.5608C124.256 16.8056 124.301 17.0695 124.287 17.3336V17.5494C123.861 17.4117 123.426 17.3056 122.985 17.232C122.45 17.136 121.908 17.0893 121.365 17.0922C120.705 17.081 120.048 17.1623 119.412 17.3336C118.877 17.4705 118.373 17.7053 117.928 18.0256C117.519 18.3306 117.191 18.7269 116.971 19.1812C116.731 19.6834 116.613 20.2333 116.626 20.7876V20.832C116.611 21.3688 116.718 21.9023 116.939 22.394C117.133 22.8297 117.427 23.2162 117.798 23.5242C118.179 23.8402 118.622 24.0778 119.099 24.2226C119.619 24.3862 120.161 24.4677 120.707 24.4639C121.372 24.4871 122.035 24.3665 122.647 24.1108C123.259 23.855 123.806 23.4704 124.247 22.9845V24.1972H128.438V17.4224C128.453 16.69 128.352 15.9597 128.139 15.2573C127.949 14.6588 127.606 14.1171 127.143 13.6827M124.319 19.9178C124.331 20.1804 124.287 20.4426 124.187 20.6869C124.087 20.9312 123.935 21.1517 123.74 21.3337C123.323 21.6922 122.779 21.8788 122.224 21.8543C121.836 21.8678 121.456 21.7488 121.15 21.5178C121.008 21.4028 120.897 21.2576 120.824 21.0933C120.751 20.9292 120.717 20.7506 120.726 20.5717V20.5273C120.721 20.3258 120.763 20.1258 120.851 19.943C120.938 19.7602 121.067 19.5994 121.227 19.4733C121.645 19.1821 122.154 19.0408 122.666 19.0733C122.97 19.0704 123.274 19.1002 123.571 19.1621C123.827 19.2089 124.078 19.2812 124.319 19.3781V19.9178Z" fill="#999999"/>
<path d="M135.344 9.44141H131.088V12.4193H129.663V15.7463H131.088V20.5274C131.088 21.9369 131.446 22.9338 132.162 23.5306C133.021 24.167 134.085 24.4822 135.162 24.4195C135.71 24.4242 136.256 24.3624 136.789 24.2354C137.243 24.1261 137.68 23.9619 138.091 23.7465V20.5084C137.839 20.623 137.578 20.7164 137.31 20.7877C137.044 20.8638 136.768 20.9024 136.49 20.902C136.328 20.9263 136.162 20.9122 136.007 20.861C135.852 20.8098 135.712 20.723 135.598 20.6079C135.484 20.4927 135.401 20.3526 135.355 20.1994C135.308 20.0461 135.3 19.8843 135.331 19.7274V15.7463H138.136V12.4193H135.331L135.344 9.44141Z" fill="#999999"/>
<path d="M147.835 12.1587C147.081 12.1334 146.336 12.3303 145.7 12.7239C145.152 13.0804 144.668 13.5223 144.267 14.0318V8.31738H140.011V24.1907H144.267V17.8414C144.23 17.3044 144.408 16.7742 144.763 16.362C144.931 16.1941 145.134 16.0631 145.359 15.9778C145.583 15.8924 145.824 15.8546 146.064 15.8668C146.289 15.8587 146.514 15.8989 146.722 15.9844C146.93 16.07 147.116 16.1988 147.268 16.362C147.608 16.7808 147.775 17.3084 147.737 17.8414V24.1907H151.986V16.489C152.055 15.3339 151.666 14.1972 150.9 13.3143C150.508 12.9213 150.035 12.6152 149.511 12.4168C148.988 12.2185 148.427 12.1326 147.867 12.165" fill="#999999"/>
</g>
</g>
<defs>
<clipPath id="clip0_1680_2712">
<rect width="160" height="32" fill="white" transform="translate(0.439148)"/>
</clipPath>
</defs>
</svg>
