<svg width="171" height="32" viewBox="0 0 171 32" fill="none" xmlns="http://www.w3.org/2000/svg">
<g clip-path="url(#clip0_1695_3294)">
<path d="M61.7512 15.5585V23.1967C61.7742 23.4523 61.6819 23.7048 61.4996 23.8854C61.3175 24.0661 61.064 24.156 60.8087 24.1307H60.1804C59.9232 24.1596 59.6665 24.0713 59.4816 23.8902C59.2968 23.7091 59.2031 23.4544 59.2267 23.1967V16.2766C59.2267 12.3159 58.3459 10.1476 55.8606 10.1476C53.5044 10.1476 50.1103 12.128 50.1103 15.7745V23.1967C50.1327 23.4501 50.0421 23.7006 49.8623 23.8808C49.6828 24.0609 49.4326 24.1524 49.179 24.1307H48.5507C48.2937 24.1564 48.0388 24.0654 47.8562 23.8828C47.6735 23.7002 47.5824 23.4452 47.6082 23.1882V1.35099C47.5734 0.862714 47.8878 0.417705 48.3599 0.287879L49.0528 0.0690859C49.7456 -0.149707 50.1215 0.164457 50.1215 0.823642V10.501C51.5998 8.70861 53.7372 8.11675 56.1888 8.11675C60.1467 8.11114 61.7512 11.1911 61.7512 15.5585Z" fill="#999999"/>
<path d="M42.2926 21.4043C43.0163 20.9948 43.1734 21.0901 43.6138 21.5305L43.6446 21.5614C44.1159 22.0326 43.9251 22.5375 43.5493 22.8826C42.7077 23.668 40.3122 24.4534 38.0486 24.4534C33.6166 24.4534 30.1945 21.4352 30.1945 16.344C30.1945 11.5362 33.2435 8.1084 37.7064 8.1084C42.4525 8.1084 44.9041 11.9737 44.9041 15.5894C44.9041 16.4057 44.7779 16.7535 43.9925 16.7535H32.705C32.9266 20.9976 35.3445 22.5992 38.3627 22.5992C40.1243 22.5992 41.1622 22.0663 42.2926 21.4043ZM32.7555 15.0228H42.3964C42.0822 12.1617 40.9939 9.99339 37.8382 9.99339C34.9995 9.99619 33.2099 11.7886 32.7695 15.0256L32.7555 15.0228Z" fill="#999999"/>
<path d="M78.0344 8.42269H78.6628C78.9197 8.39702 79.1747 8.48802 79.3573 8.67065C79.5399 8.85326 79.6311 9.10821 79.6052 9.36518V23.194C79.6052 23.7915 79.4089 24.1057 78.9376 24.1057C78.7189 24.1057 78.4748 24.072 78.127 23.4773L77.3107 22.0748C75.9236 23.6253 73.9292 24.494 71.8493 24.4535C67.3612 24.4535 64.2112 20.964 64.2112 16.2824C64.2112 11.6008 67.2967 8.11133 71.8185 8.11133C73.9868 8.11133 75.7792 8.4844 77.1003 10.1169V9.36799C77.0743 9.11214 77.1637 8.858 77.3444 8.67509C77.5253 8.49214 77.7783 8.39957 78.0344 8.42269ZM77.1929 16.3133C77.1929 11.4101 74.3626 10.2151 72.1018 10.2151C68.9265 10.2151 66.7273 12.5405 66.7273 16.2824C66.7273 20.0243 68.9208 22.3469 72.1298 22.3469C74.4215 22.3469 77.1789 21.1548 77.1789 16.3133H77.1929Z" fill="#999999"/>
<path d="M93.4678 9.08495C94.0653 9.58705 93.9391 10.0274 93.4987 10.437L93.1228 10.782C92.6207 11.2532 92.2111 11.0962 91.7708 10.8129C91.1506 10.4183 90.4299 10.2109 89.695 10.2154C87.451 10.2154 85.7035 11.8816 85.7035 14.7427L85.6389 23.1971C85.6692 23.454 85.58 23.7106 85.3966 23.893C85.2131 24.0753 84.9559 24.1632 84.6992 24.1312H84.0709C83.814 24.1569 83.559 24.0659 83.3764 23.8832C83.1938 23.7006 83.1026 23.4457 83.1284 23.1887V9.36826C83.1018 9.11081 83.1924 8.85507 83.3753 8.67179C83.5579 8.48851 83.8134 8.39715 84.0709 8.42296H84.6992C84.9562 8.39729 85.2112 8.48829 85.3938 8.67092C85.5764 8.85353 85.6675 9.10848 85.6417 9.36545V10.4033C86.8675 9.02043 88.5029 8.13965 90.2616 8.13965C91.3304 8.14245 92.6824 8.45662 93.4678 9.08495Z" fill="#999999"/>
<path d="M119.313 15.5274V23.1964C119.336 23.452 119.244 23.7045 119.062 23.8852C118.88 24.0658 118.626 24.1558 118.371 24.1305H117.743C117.486 24.1562 117.231 24.0652 117.048 23.8825C116.865 23.6999 116.775 23.445 116.8 23.188V15.8416C116.8 12.1642 115.762 10.153 113.499 10.153C111.235 10.153 108.971 12.038 108.94 15.7799V23.1964C108.963 23.452 108.871 23.7045 108.689 23.8852C108.507 24.0658 108.253 24.1558 107.998 24.1305H107.37C107.113 24.1562 106.858 24.0652 106.675 23.8825C106.492 23.6999 106.401 23.445 106.427 23.188V15.8416C106.427 12.1642 105.389 10.153 103.126 10.153C100.862 10.153 98.5982 12.038 98.5673 15.7799V23.1964C98.5903 23.452 98.498 23.7045 98.3157 23.8852C98.1337 24.0658 97.8801 24.1558 97.6248 24.1305H96.9965C96.7396 24.1562 96.4846 24.0652 96.302 23.8825C96.1194 23.6999 96.0285 23.445 96.054 23.188V9.36755C96.0274 9.1101 96.118 8.85437 96.3009 8.67109C96.4835 8.48781 96.739 8.39645 96.9965 8.42225H97.6248C97.8818 8.39659 98.1368 8.48758 98.3194 8.67022C98.502 8.85283 98.5931 9.10778 98.5673 9.36475V10.5597C99.824 9.01973 101.207 8.03516 103.283 8.03516C105.608 8.03516 107.49 9.2301 108.312 11.4293C109.79 9.16559 111.456 8.03516 113.782 8.03516C117.571 8.04638 119.313 11.1263 119.313 15.5274Z" fill="#999999"/>
<path d="M122.088 16.3127C122.088 11.1907 125.67 8.1416 129.787 8.1416C133.905 8.1416 137.487 11.1907 137.487 16.3127C137.487 21.4347 133.905 24.4838 129.787 24.4838C125.67 24.4838 122.088 21.4375 122.088 16.3127ZM134.912 16.3127C134.912 12.3211 132.43 10.1837 129.79 10.1837C127.151 10.1837 124.635 12.2903 124.635 16.3548C124.635 20.4193 127.148 22.4473 129.757 22.4473C132.365 22.4473 134.912 20.3996 134.912 16.3127Z" fill="#999999"/>
<path d="M154.416 15.5278V23.1968C154.438 23.4518 154.347 23.7038 154.165 23.8844C153.983 24.0649 153.731 24.1552 153.476 24.1309H152.848C152.591 24.1565 152.336 24.0655 152.153 23.8829C151.971 23.7003 151.88 23.4453 151.905 23.1884V15.842C151.905 12.3525 151.182 10.1533 148.511 10.1533C146.06 10.1533 142.918 12.0075 142.792 16.0636V23.1968C142.815 23.4534 142.722 23.707 142.538 23.8879C142.355 24.0688 142.1 24.1579 141.844 24.1309H141.215C140.958 24.1565 140.703 24.0655 140.521 23.8829C140.338 23.7003 140.247 23.4453 140.273 23.1884V9.36792C140.246 9.11048 140.337 8.85474 140.52 8.67146C140.702 8.48818 140.958 8.39682 141.215 8.42263H141.844C142.1 8.39696 142.355 8.48796 142.538 8.67059C142.721 8.8532 142.812 9.10815 142.786 9.36512V10.647C144.391 8.66666 146.402 8.04395 148.758 8.04395C152.78 8.04675 154.416 11.1603 154.416 15.5278Z" fill="#999999"/>
<path d="M169.411 7.97943H169.947C170.64 7.97943 170.954 8.41982 170.671 9.07901L161.05 31.2753C160.878 31.7289 160.435 32.0206 159.95 31.999H159.414C158.721 31.999 158.41 31.5586 158.691 30.8994L162.155 23.3258L156.62 9.07901C156.368 8.41982 156.682 7.97943 157.375 7.97943H158.099C158.598 7.93679 159.058 8.25259 159.198 8.73399L163.378 20.3945L168.312 8.70313C168.484 8.24964 168.927 7.95772 169.411 7.97943Z" fill="#999999"/>
<path d="M13.287 4.94831C10.271 1.93259 5.38138 1.93259 2.36536 4.94831L7.82619 10.4091L13.287 4.94831Z" fill="#999999"/>
<path d="M2.36536 15.8699L7.8262 10.4091L2.36536 4.94824C-0.650354 7.96426 -0.650351 12.8539 2.36536 15.8699Z" fill="#999999"/>
<path d="M24.2087 15.8699C27.2244 12.8539 27.2244 7.96426 24.2087 4.94824L18.7479 10.4091L24.2087 15.8699Z" fill="#999999"/>
<path d="M13.287 4.94831L18.7479 10.4091L24.2087 4.94831C21.1927 1.93259 16.3031 1.93259 13.287 4.94831Z" fill="#999999"/>
<path d="M18.7507 10.4091L13.2871 4.94824L7.82623 10.4091L13.2871 15.8699L18.7507 10.4091Z" fill="#999999"/>
<path d="M7.82619 10.4092L2.36536 15.87L7.82619 21.3336L13.287 15.87L7.82619 10.4092Z" fill="#999999"/>
<path fill-rule="evenodd" clip-rule="evenodd" d="M13.2863 15.8691L18.7474 10.408L24.2085 15.8691L18.7474 21.3302L13.2863 15.8691Z" fill="#999999"/>
<path fill-rule="evenodd" clip-rule="evenodd" d="M7.82745 21.334L13.2886 15.8729L18.7497 21.334L13.2886 26.7951L7.82745 21.334Z" fill="#999999"/>
</g>
<defs>
<clipPath id="clip0_1695_3294">
<rect width="170.671" height="32" fill="white" transform="translate(0.103577)"/>
</clipPath>
</defs>
</svg>
