<svg width="95" height="24" viewBox="0 0 95 24" fill="none" xmlns="http://www.w3.org/2000/svg">
<g clip-path="url(#clip0_1695_3335)">
<path d="M6.36354 10.341C7.45153 7.5198 9.30442 6.75782 11.4892 6.76755C14.0262 6.77826 15.519 8.18739 16.1953 10.6592C16.3987 10.1074 16.5467 9.63642 16.788 9.20628C17.585 7.78645 18.8112 7.04198 20.413 6.82789C21.1643 6.72765 21.9029 6.74809 22.6308 6.90185C24.6453 7.32614 26.0602 8.92602 26.3172 10.9803C26.396 11.609 26.4174 12.2367 26.4174 12.8673C26.4154 15.2311 26.4174 17.5959 26.4154 19.9597C26.4154 20.4647 26.4699 20.962 26.6013 21.4486C26.7794 22.1113 27.1628 22.6115 27.808 22.8772C28.0426 22.9735 28.209 23.0893 28.1486 23.3735C28.0902 23.6479 27.8635 23.6003 27.6806 23.6003C25.4287 23.6051 23.1758 23.6041 20.9239 23.6012C20.7351 23.6012 20.5132 23.6333 20.4578 23.3657C20.4111 23.1409 20.5094 22.994 20.7205 22.9113C21.6606 22.5444 22.008 21.7727 22.0752 20.8482C22.1228 20.1874 22.1063 19.5208 22.1053 18.8571C22.1014 16.2987 22.0956 13.7402 22.082 11.1818C22.0791 10.629 21.9603 10.0919 21.7813 9.56733C21.3463 8.29833 20.4091 7.89836 19.1119 8.24967C17.7456 8.61947 17.1004 9.688 16.7919 10.9959C16.6985 11.391 16.6644 11.7939 16.6644 12.1997C16.6644 14.8876 16.6644 17.5754 16.6644 20.2643C16.6644 20.6204 16.6936 20.9747 16.7792 21.3231C16.9544 22.0374 17.3106 22.6067 18.0239 22.8889C18.2458 22.9765 18.383 23.102 18.3353 23.3589C18.2847 23.6343 18.0628 23.5993 17.877 23.5993C15.6085 23.6032 13.3401 23.6022 11.0717 23.5993C10.8955 23.5993 10.697 23.6129 10.6454 23.3764C10.6036 23.1837 10.6474 23.0125 10.8517 22.9395C12.0079 22.5249 12.327 21.5527 12.33 20.4959C12.3378 17.2913 12.4575 14.0847 12.2609 10.8821C12.2434 10.593 12.1957 10.3011 12.1198 10.0218C11.8804 9.1333 11.458 8.35574 10.4664 8.1835C9.26841 7.97524 8.30791 8.43165 7.62086 9.43887C7.08173 10.23 6.88126 11.1322 6.87445 12.0635C6.85207 14.8486 6.84623 17.6338 6.87737 20.419C6.88905 21.4924 7.14012 22.4938 8.31277 22.9385C8.52395 23.0183 8.54049 23.1906 8.51033 23.3793C8.48016 23.5691 8.33029 23.5857 8.18043 23.5964C8.09965 23.6022 8.01888 23.6022 7.93714 23.6022C5.74948 23.6022 3.56182 23.6041 1.37514 23.5993C1.16299 23.5993 0.889532 23.6742 0.830169 23.3443C0.778592 23.0553 0.978089 22.9589 1.20386 22.8645C2.1342 22.4763 2.45145 21.6734 2.5186 20.7625C2.57893 19.9402 2.55558 19.112 2.5546 18.2858C2.55266 15.7595 2.56044 13.2332 2.5293 10.7079C2.51665 9.69092 2.22178 8.80729 1.06081 8.53675C0.863256 8.49101 0.819464 8.33823 0.834062 8.16209C0.848659 7.98205 0.971277 7.93048 1.13379 7.91004C2.85823 7.69789 4.54568 7.33782 6.17767 6.72571C6.68274 6.53594 6.57764 6.9544 6.54844 7.19282C6.43263 8.14262 6.37133 9.0934 6.36257 10.049C6.36257 10.1454 6.36257 10.2417 6.36257 10.3381L6.36354 10.341Z" fill="#999999"/>
<path d="M73.8987 9.55993C74.4223 8.64322 75.049 7.90264 75.9394 7.41607C77.8352 6.37965 80.8753 6.55677 82.3409 8.08949C83.3082 9.10157 83.7578 10.3365 83.7772 11.7028C83.8152 14.3586 83.7909 17.0143 83.7938 19.6701C83.7938 20.2705 83.8522 20.8661 83.9748 21.4539C84.1208 22.1545 84.4945 22.6664 85.201 22.8912C85.4306 22.9642 85.6379 23.0557 85.5795 23.3564C85.5211 23.6561 85.274 23.5997 85.0735 23.5997C82.8372 23.6036 80.6009 23.6036 78.3645 23.5997C78.1524 23.5997 77.8799 23.6717 77.8225 23.3408C77.7699 23.0343 77.9996 22.9642 78.2205 22.8883C78.9436 22.6401 79.2978 22.0854 79.4253 21.3731C79.4963 20.977 79.5372 20.5693 79.5391 20.1673C79.5489 17.4795 79.5557 14.7907 79.5372 12.1028C79.5314 11.263 79.4623 10.4221 79.1684 9.61929C78.6672 8.24617 77.7446 7.93281 76.4747 8.24033C75.0753 8.57899 74.4447 9.63973 74.1586 10.9584C74.0554 11.4352 74.0311 11.9198 74.0311 12.4064C74.0311 14.9979 74.0291 17.5885 74.034 20.18C74.034 20.5994 74.0535 21.0179 74.1284 21.4363C74.2598 22.1672 74.6014 22.7014 75.3487 22.9136C75.5502 22.971 75.7039 23.0712 75.6786 23.3204C75.6504 23.5919 75.4519 23.6006 75.2514 23.6006C72.9664 23.6006 70.6815 23.6006 68.3965 23.5987C68.2165 23.5987 68.0238 23.5948 67.9926 23.3505C67.9712 23.1793 67.9926 23.0129 68.1921 22.9603C69.5409 22.608 69.6976 21.522 69.7151 20.4038C69.7472 18.3475 69.7258 16.2903 69.7268 14.234C69.7268 11.044 69.7268 7.85301 69.7278 4.663C69.7278 4.27374 69.7054 3.88837 69.6441 3.503C69.5195 2.71961 69.1488 2.1435 68.3595 1.89535C68.1483 1.82917 67.9547 1.75035 67.9897 1.47008C68.0238 1.19467 68.2388 1.21803 68.4306 1.20051C70.1482 1.04675 71.8171 0.675007 73.4413 0.096952C73.962 -0.0879479 74.0311 -0.0441558 74.0272 0.518329C74.0097 3.04367 74.0963 5.56999 73.9552 8.09436C73.9289 8.55758 73.8092 9.01594 73.8997 9.55896L73.8987 9.55993Z" fill="#999999"/>
<path d="M39.121 20.7698C38.6354 21.6155 38.1293 22.3133 37.418 22.8475C35.4269 24.3423 32.3167 24.389 30.4073 22.9351C28.2907 21.3236 28.3871 18.2095 30.603 16.74C31.5479 16.1133 32.6252 15.8038 33.7005 15.4953C34.5403 15.254 35.3909 15.0496 36.2083 14.7353C36.6054 14.5835 36.9791 14.3947 37.3031 14.1183C37.6593 13.8137 37.8608 13.4069 37.7975 12.9564C37.6194 11.6893 37.3752 10.4339 36.8604 9.25058C36.1772 7.67893 34.88 7.25853 33.4378 7.73148C32.3371 8.09252 31.9206 9.23793 32.4685 10.2578C32.6057 10.5137 32.7799 10.7502 32.9307 10.9993C33.4777 11.9015 33.464 12.9262 32.8977 13.6424C32.3585 14.3236 31.3338 14.5757 30.3665 14.2662C29.4858 13.984 28.8571 13.1374 28.787 12.1876C28.6459 10.2714 29.5558 8.90414 31.1129 7.96212C33.3949 6.58121 35.8502 6.37587 38.3483 7.26923C40.1496 7.91346 41.0819 9.38098 41.5704 11.1473C42.0541 12.896 42.2254 14.7071 42.5494 16.4879C42.7986 17.8552 42.9494 19.241 43.3143 20.5859C43.3863 20.8496 43.4768 21.1124 43.5927 21.3605C43.8924 22.0038 44.2398 22.1469 44.9278 21.9367C45.0456 21.9006 45.1633 21.7965 45.284 21.924C45.3852 22.032 45.319 22.1371 45.2587 22.2325C44.3838 23.59 42.7635 24.39 41.2493 23.8129C40.2333 23.4266 39.7399 22.5916 39.3974 21.6321C39.3078 21.38 39.2339 21.1221 39.1229 20.7737L39.121 20.7698ZM38.0856 14.492C37.635 14.9513 37.199 15.2773 36.7202 15.542C36.2385 15.8077 35.7441 16.0529 35.2615 16.3167C34.7194 16.6125 34.2085 16.9531 33.7832 17.4095C33.1001 18.1423 32.9648 19.0172 33.1993 19.9417C33.4893 21.0832 34.4479 21.7498 35.7539 21.7994C37.0491 21.8481 38.0252 21.236 38.4301 20.1246C38.5468 19.8025 38.6052 19.4755 38.612 19.1291C38.6422 17.5866 38.3279 16.089 38.0836 14.493L38.0856 14.492Z" fill="#999999"/>
<path d="M61.3791 24.0002C57.3268 23.9856 54.3324 21.3902 53.6736 17.3817C53.2269 14.6627 53.6444 12.1539 55.3708 9.95655C57.0106 7.86913 59.2011 6.80547 61.8481 6.76363C63.4801 6.73832 64.97 7.22879 66.2565 8.27591C67.652 9.41159 68.2739 11.3414 67.726 12.8887C67.3134 14.0535 66.1553 14.6102 64.936 14.2297C63.8684 13.8959 63.3517 12.8283 63.6825 11.6421C63.7662 11.3433 63.9073 11.0728 64.0514 10.8003C64.7199 9.53031 64.1487 8.14162 62.7804 7.67742C61.235 7.15289 59.098 7.874 58.1686 9.64709C56.7955 12.2649 57.0835 17.2114 59.7811 19.5928C62.1946 21.722 65.8507 21.2822 67.6082 18.5904C67.7211 18.4172 67.798 18.0552 68.052 18.1788C68.3041 18.3014 68.1016 18.606 68.0394 18.822C67.1402 21.9702 64.5107 24.0119 61.3771 24.0002H61.3791Z" fill="#999999"/>
<path d="M50.4291 14.0241C50.4291 15.8059 50.4184 17.5868 50.4349 19.3687C50.4417 20.1394 50.5906 20.8887 51.1171 21.496C51.7321 22.2044 52.6537 22.365 53.657 21.9777C53.8166 21.9164 54.0142 21.6867 54.1611 21.9446C54.2808 22.1538 54.0599 22.3018 53.9276 22.4263C52.5058 23.7605 50.8524 24.3065 48.9265 23.8306C47.5446 23.489 46.769 22.5402 46.3963 21.2099C46.1851 20.4547 46.1199 19.681 46.118 18.9045C46.1092 15.4712 46.1151 12.0379 46.1141 8.60457C46.1141 7.9691 46.1112 7.9691 45.4601 7.96716C44.8441 7.96618 44.2281 7.96229 43.6131 7.96716C43.3834 7.9691 43.2335 7.89612 43.2277 7.64407C43.2219 7.40759 43.2335 7.19934 43.5391 7.13024C46.2348 6.51521 47.894 4.65258 49.2097 2.38902C49.3956 2.06885 49.5347 1.71949 49.6817 1.37791C49.7829 1.14435 49.9201 0.991567 50.1974 1.05093C50.468 1.10932 50.4271 1.33023 50.4271 1.51804C50.43 3.20258 50.4446 4.88711 50.4203 6.57068C50.4135 7.03779 50.5731 7.1682 51.013 7.11565C52.0893 6.98816 53.1763 6.94048 54.2273 6.64853C54.5397 6.56192 54.6652 6.64853 54.6837 6.98427C54.7372 7.93894 54.7207 7.96716 53.7738 7.96716C52.8337 7.96716 51.8937 7.98273 50.9546 7.96035C50.5546 7.95061 50.4193 8.07907 50.4232 8.48488C50.4407 10.331 50.431 12.177 50.431 14.0231L50.4291 14.0241Z" fill="#999999"/>
<path d="M85.8637 18.3122C85.8646 17.2252 86.3911 16.4155 87.2709 16.0915C88.2586 15.7285 89.3232 16 89.9704 16.8505C90.2429 17.2086 90.3538 17.1541 90.6127 16.8505C91.4321 15.8881 92.6057 15.6681 93.6178 16.2433C94.5686 16.7834 94.9617 17.9551 94.5832 19.1228C94.2659 20.1018 93.5565 20.7918 92.8315 21.4643C92.0257 22.2107 91.1411 22.8763 90.4871 23.7745C90.3324 23.9867 90.2098 23.9468 90.0755 23.7648C89.3855 22.8335 88.4639 22.1348 87.6251 21.3543C87.1735 20.9339 86.7512 20.4892 86.4038 19.9792C86.0515 19.4615 85.8092 18.9039 85.8627 18.3122H85.8637Z" fill="#999999"/>
</g>
<defs>
<clipPath id="clip0_1695_3335">
<rect width="93.9048" height="24" fill="white" transform="translate(0.822388)"/>
</clipPath>
</defs>
</svg>
