<svg width="29" height="29" viewBox="0 0 29 29" fill="none" xmlns="http://www.w3.org/2000/svg"><path d="M13.9755 13.0112L10.292 16.2706L5.7079 11.6924C2.86683 8.85129 1.80361 4.08712 4.06368 1.81543L14.5623 12.3315C14.4016 12.586 14.2038 12.8151 13.9755 13.0112V13.0112ZM25.3572 23.1264L16.9327 14.7019L16.6422 14.4347C16.3881 14.5935 16.159 14.7893 15.9625 15.0157L13.0575 18.2925C13.2768 18.2479 13.4785 18.141 13.6385 17.9845L14.7366 16.8865L21.9351 26.5659C22.3912 27.0196 23.0089 27.2737 23.6523 27.272C23.9709 27.2712 24.2862 27.2077 24.5802 27.085C24.8742 26.9624 25.1412 26.783 25.3659 26.5571C25.5906 26.3313 25.7686 26.0634 25.8898 25.7688C26.0109 25.4741 26.0729 25.1585 26.0721 24.8399C26.0713 24.5214 26.0077 24.2061 25.8851 23.9121C25.7624 23.618 25.583 23.3511 25.3572 23.1264V23.1264Z" fill="#FFC9D0" stroke="#FF4A64" stroke-linecap="round" stroke-linejoin="round"/><path d="M23.0332 12.5462C22.6028 12.9777 22.091 13.3196 21.5275 13.552C20.9641 13.7843 20.3601 13.9026 19.7506 13.8999C17.6241 13.8999 16.7991 14.1148 15.9973 15.0212L5.08623 27.3383C4.62754 27.7715 4.01795 28.0087 3.3871 27.9994C2.75625 27.9901 2.1539 27.7351 1.70816 27.2886C1.26241 26.8421 1.00842 26.2393 1.00021 25.6084C0.991991 24.9776 1.2302 24.3684 1.66417 23.9104L13.9755 13.011C14.8818 12.2092 15.0968 11.3842 15.0968 9.25772C15.0958 8.02748 15.5826 6.84703 16.4505 5.9751V5.9751L23.0332 12.5462Z" fill="#FFE5E9" stroke="#FF4A64" stroke-linecap="round" stroke-linejoin="round"/><path d="M21.3382 1.00008L16.4099 5.93164L16.4921 6.01378L21.4204 1.08222L21.3382 1.00008Z" stroke="#FF4A64" stroke-linecap="round" stroke-linejoin="round"/><path d="M27.9179 7.57532L22.9862 12.5034L23.0683 12.5856L28.0001 7.65751L27.9179 7.57532Z" stroke="#FF4A64" stroke-linecap="round" stroke-linejoin="round"/><path d="M25.7277 5.38689L20.7979 10.3169L20.88 10.3991L25.8098 5.46905L25.7277 5.38689Z" stroke="#FF4A64" stroke-linecap="round" stroke-linejoin="round"/><path d="M23.5326 3.19486L18.6024 8.12451L18.6846 8.20667L23.6148 3.27702L23.5326 3.19486Z" stroke="#FF4A64" stroke-linecap="round" stroke-linejoin="round"/></svg>