<svg width="26" height="28" viewBox="0 0 26 28" fill="none" xmlns="http://www.w3.org/2000/svg"><path fill-rule="evenodd" clip-rule="evenodd" d="M24.8914 18.4355L20.7428 16.0139L19.0564 11.4066C18.7932 10.6855 18.2546 10.0984 17.5589 9.77412L14.8606 8.52955V7.27148H11.5451V8.51606L8.84685 9.76063C8.15072 10.0881 7.61494 10.6809 7.35943 11.4066L5.67302 16.0273L1.53456 18.4355C1.02992 18.7473 0.853528 19.397 1.1312 19.9212C1.40886 20.4454 2.04545 20.6645 2.58688 20.4221L7.09973 18.2635L9.18413 13.6832C9.18413 13.6832 10.1218 18.5131 8.3443 21.0697L13.2113 22.655L18.0817 21.0697C16.3042 18.5131 17.2418 13.6832 17.2418 13.6832L19.3229 18.2635L23.8391 20.4221C24.3805 20.6645 25.0171 20.4454 25.2948 19.9212C25.5724 19.397 25.396 18.7473 24.8914 18.4355Z" fill="#FFC9D0" stroke="#FE4A64"/><path d="M13.2112 7.71346C15.0833 7.71346 16.6009 6.19585 16.6009 4.32377C16.6009 2.4517 15.0833 0.934082 13.2112 0.934082C11.3391 0.934082 9.82153 2.4517 9.82153 4.32377C9.82153 6.19585 11.3391 7.71346 13.2112 7.71346Z" fill="#FFE5E9" stroke="#FE4A64"/><path d="M16.6145 23.1307C16.3036 22.7629 15.789 22.6411 15.3463 22.8305L14.8269 23.0565L7.2751 20.601C6.49502 20.3401 5.63908 20.6644 5.22779 21.3768C4.97051 21.851 4.95565 22.4197 5.18781 22.9067C5.41997 23.3937 5.87113 23.7402 6.40154 23.839L16.0208 25.9605C15.9991 26.4704 16.3386 26.9255 16.8337 27.0499C17.259 27.1566 17.7065 26.9937 17.9636 26.6384C18.3977 26.0369 18.3685 25.2176 17.8928 24.6484L16.6145 23.1307Z" fill="#FFC9D0" stroke="#FE4A64"/><path d="M9.81162 23.1306C10.1224 22.7603 10.6396 22.6382 11.0832 22.8304L11.6026 23.0564L19.151 20.601C19.9321 20.3354 20.7919 20.6606 21.2017 21.3767C21.4589 21.8505 21.4742 22.4186 21.2428 22.9055C21.0113 23.3924 20.5611 23.7393 20.0313 23.8389L10.4052 25.9604C10.43 26.4702 10.091 26.9264 9.59576 27.0498C9.17042 27.1565 8.72296 26.9936 8.46586 26.6383C8.0293 26.0376 8.05852 25.2166 8.53669 24.6484L9.81162 23.1306Z" fill="#FFC9D0" stroke="#FE4A64"/></svg>