<svg width="33" height="25" viewBox="0 0 33 25" fill="none" xmlns="http://www.w3.org/2000/svg"><path d="M15.0038 17.3146L13.3202 16.8046C7.34727 15.007 3.40513 13.8226 2.01813 10.9542C0.887976 8.61709 2.00148 5.96029 4.54881 4.91604C5.98789 4.32612 7.66628 4.37456 9.03745 4.97629C9.46927 3.63545 10.5532 2.45462 11.9923 1.86469C14.5396 0.820447 17.4291 1.8363 18.5592 4.17345C19.9463 7.04176 18.2644 10.5316 15.7223 15.8289L15.0038 17.3146Z" fill="#FFC9D0" stroke="#FF4A64"/><path d="M21.8454 21.156L21.6087 20.1112C20.7613 16.4085 20.2008 13.9653 21.5118 12.304C22.58 10.9503 24.5786 10.6622 26.054 11.6491C26.8876 12.2067 27.4066 13.0978 27.4849 14.0097C28.4509 13.7964 29.5319 13.9755 30.3654 14.5331C31.8409 15.52 32.1608 17.3591 31.0926 18.7128C29.7816 20.3741 27.0846 20.6383 22.9944 21.0449L21.8454 21.156Z" fill="#FFE6E9" stroke="#FF4A64"/></svg>