<svg xmlns="http://www.w3.org/2000/svg" width="300" height="38" fill="none"><g fill="#387A4A" clip-path="url(#a)"><path d="M0 15.598c.26-.267.553-.51.778-.804C4.434 9.99 8.677 5.855 14.034 2.947 19.467-.004 25.09-.475 30.862 1.7c3.535 1.331 6.987 2.88 10.486 4.305 1.06.431.95 1.083.453 1.847-1.16 1.788-3.818 1.978-5.832.565-1.549-1.088-3.239-1.971-4.828-3.007-1.5-.98-2.927-2.067-4.427-3.047-.377-.246-.905-.258-1.364-.377-.117.539-.51 1.27-.295 1.58.64.928 1.479 1.734 2.32 2.5.51.464 1.23.694 1.748 1.151 1.064.945.917 1.868-.452 2.189-2.194.516-4.43.86-6.659 1.195-1.502.228-3.025.3-4.537.474-.38.044-.83.108-1.097.34-.312.27-.68.778-.61 1.094.069.312.65.72 1.006.72 1.088.004 2.173-.192 3.26-.263 1.67-.105 3.343-.169 5.014-.25.018.124.037.248.058.37-1.087.192-2.175.377-3.26.579-1.725.318-3.448.644-5.17.972-.19.035-.378.101-.558.171-.694.268-1.366.636-1.1 1.514.25.811.988.758 1.672.643 2.77-.462 5.538-.926 8.308-1.386.22-.037.446-.046.71.172-2.097.405-4.197.808-6.295 1.214-.46.089-.984.077-1.354.309-.373.234-.593.715-.88 1.087.406.282.837.84 1.21.8 1.936-.2 3.858-.542 5.782-.851 1.12-.18 2.236-.394 3.354-.593.03.11.063.22.094.333-.366.154-.722.335-1.097.462-1.479.492-2.981.923-4.432 1.48-.375.146-.602.676-.898 1.027.434.232.851.596 1.308.657.473.063.99-.162 1.481-.275 2.128-.478 4.242-1.024 6.382-1.43 4.807-.913 8.445-3.454 11.396-7.354 3.942-5.21 9.12-8.557 15.797-9.232 5.015-.506 9.799.502 14.428 2.285 2.606 1.003 5.102 2.297 7.795 3.525-.734 1.51-1.324 2.81-1.988 4.071-1.996 3.788-4.457 7.235-7.52 10.247-5.862 5.759-12.875 7.706-20.858 6.218-2.365-.44-4.647-1.303-6.991-1.88-.567-.14-1.331-.103-1.821.176-3.816 2.18-5.569 5.606-5.764 10.221-1.122-3.058-.965-5.784.289-8.42 1.748-3.678 4.704-5.738 8.754-6.167.513-.054 1.085.054 1.572.239 1.557.588 3.075 1.28 4.63 1.875 2.102.806 4.216 1.591 6.349 2.313.473.16 1.05.012 1.58.007-.067-.586.09-1.418-.238-1.71-.813-.73-1.823-1.257-2.8-1.782-.645-.347-1.418-.462-2.037-.841-1.031-.629-1.064-1.35-.045-1.965 1.13-.68 2.335-1.27 3.568-1.727 2.043-.76 4.143-1.373 6.21-2.072.624-.21 1.304-.393 1.805-.785.347-.27.434-.874.638-1.329-.467-.164-.982-.544-1.392-.45-1.212.277-2.37.774-3.568 1.118-1.427.41-2.876.755-4.315 1.128l-.112-.352c.586-.248 1.167-.504 1.755-.745 1.91-.788 3.823-1.566 5.73-2.358.324-.134.645-.288.934-.483.583-.394 1.28-.792.857-1.662-.428-.883-1.162-.579-1.823-.319-2.503.987-5 1.99-7.5 2.984-.337.134-.687.237-1.122.115 2.104-.902 4.214-1.79 6.306-2.714.743-.328 1.922-.516 1.489-1.676-.471-1.26-1.538-.555-2.302-.262-2.182.841-4.326 1.783-6.49 2.674-.377.155-.78.258-1.17.382-.044-.087-.09-.171-.135-.258.295-.21.574-.443.886-.626 1.378-.81 2.791-1.568 4.13-2.44.34-.22.452-.792.67-1.202-.474-.138-.942-.36-1.42-.387-.312-.016-.64.253-.96.401-2.226 1.031-4.445 2.077-6.679 3.094-2.822 1.287-5.105 3.246-7.228 5.475-4.912 5.16-10.671 8.756-18.01 9.12-4.605.23-8.859-1.144-12.923-3.179C7.07 21.434 3.776 19.07.731 16.358c-.22-.193-.485-.347-.731-.523V15.598ZM299.999 20.757l-.37 1.82c-1.015 4.909-4.559 7.808-9.865 7.939-1.699.042-3.403-.178-5.273-.288v8.789c-1.336-.127-2.63-.108-3.839-.417-.643-.164-1.339-.795-1.646-1.402-.33-.65-.309-1.514-.311-2.285-.019-7.495.018-14.993-.043-22.488-.009-1.282.465-2.166 1.517-2.628 1.303-.572 2.679-1.195 4.064-1.315 2.51-.215 5.077-.309 7.573-.035 4.865.535 7.389 3.394 7.921 8.485.052.497.179.986.27 1.48v2.345h.002Zm-15.508 1.277c0 3.478.147 3.626 3.686 3.64.31 0 .624-.024.929-.078 4.132-.714 6.166-5.631 3.975-9.571-.598-1.074-1.465-1.756-2.637-2.154-1.73-.59-3.452-.413-5.194-.16-.651.094-.776.493-.766 1.074.026 1.558.009 3.117.007 4.676v2.573ZM96.523-.17c0 2.561.032 5.17-.033 7.774-.012.433-.41.885-.7 1.277-.425.574-.913 1.101-1.196 1.865.32-.173.708-.278.951-.527 2.086-2.126 4.735-2.09 7.336-1.734 6.877.942 9.167 5.531 8.998 11.405-.042 1.506-.277 3.035-.631 4.502-.916 3.804-3.677 5.524-7.31 6.096-3.192.502-6.377.35-9.522-.39-.638-.15-1.259-.416-1.845-.714-1.268-.645-1.931-1.556-1.912-3.14.082-7.337.035-14.675.035-22.01 0-.39.007-.781.028-1.17.117-2.19.757-2.79 2.946-2.897.926-.045 1.844-.216 2.855-.338Zm.004 19.518h-.018v2.927c0 3.143.018 3.162 3.243 3.183 3.757.028 5.902-1.734 6.099-5.308.206-3.736-1.177-6.453-5.058-6.818-1.104-.106-2.245.152-3.368.246-.745.063-.93.501-.912 1.2.045 1.52.014 3.044.014 4.568v.002ZM217.239-.48c1.247.138 2.288.288 3.331.359 1.425.096 2.128.534 2.285 1.973.199 1.814.152 3.656.206 5.487.014.461 0 .923 0 1.458 1.601-.195 3.084-.408 4.575-.547 2.037-.19 4.05-.142 5.977.704 2.524 1.106 3.649 3.241 3.728 5.772.157 5.072.05 10.151.045 15.228 0 .147-.056.297-.096.506-.982 0-1.964.129-2.897-.028-1.877-.317-2.752-1.409-2.801-3.326-.087-3.354-.098-6.713-.225-10.064-.094-2.459-.794-3.225-3.241-3.38-1.339-.084-2.703.164-4.048.312-.778.084-1.05.539-1.04 1.366.049 3.708.023 7.418.021 11.128 0 2.804-.675 3.554-3.5 3.917-.232.03-.461.08-.693.103-1.592.164-1.632.127-1.632-1.493V-.48h.005ZM192.317 24.657c.455 3.576-.888 5.425-4.268 5.932-3.002.45-5.986.32-8.925-.483-3.361-.921-5.419-3.08-6.157-6.497a20.18 20.18 0 0 1-.131-8.018c.755-4.045 3.056-6.417 7.151-6.933a29.289 29.289 0 0 1 7.317.007c3.562.46 5.545 2.77 5.993 6.34l.012.117c.534 4.992-.91 6.586-5.972 6.76-2.407.082-4.812.293-7.212.513-.389.035-1.052.42-1.055.647-.004.436.275 1.13.617 1.265 1.202.483 2.486 1.09 3.731 1.074 2.759-.038 5.51-.424 8.264-.668l.638-.054-.003-.002Zm-13.469-6.284c1.169-.152 2.245-.279 3.316-.436 1.376-.2 2.787-.3 4.104-.698.516-.157 1.109-.996 1.139-1.552.028-.55-.476-1.392-.98-1.654-.937-.488-2.036-.854-3.086-.905-3.282-.167-5.393 2.405-4.493 5.247v-.002ZM135.309 24.678c.523 3.38-.895 5.388-4.109 5.892a22.478 22.478 0 0 1-8.486-.29c-4.02-.908-6.244-3.312-6.898-7.435-.438-2.759-.452-5.515.241-8.245.788-3.11 2.841-4.941 5.864-5.745 2.799-.743 5.644-.771 8.471-.223 3.642.708 5.632 3.047 5.948 6.818.394 4.67-.975 6.195-5.772 6.413-2.025.091-4.051.148-6.076.25-.501.026-1.003.15-1.492.273-1.193.3-1.477 1.19-.415 1.816 1.12.66 2.522 1.181 3.797 1.172 2.758-.019 5.512-.415 8.268-.656.221-.02.443-.029.657-.04h.002Zm-13.5-6.364c1.847-.178 3.579-.325 5.304-.52.649-.073 1.394-.089 1.901-.424.583-.385 1.146-1.029 1.364-1.678.288-.858-.41-1.432-1.13-1.817-1.627-.864-3.316-.998-5.072-.403-2.175.736-3.026 3.296-2.367 4.84v.002ZM261.904 24.664c.515 3.745-.961 5.599-4.955 6.042-2.761.307-5.534.169-8.243-.602-3.356-.957-5.409-3.096-6.136-6.528a20.707 20.707 0 0 1-.105-8.142c.675-3.65 2.875-5.88 6.489-6.689 2.7-.605 5.429-.645 8.138-.098 3.494.705 5.491 2.992 5.829 6.548.005.04.005.077.007.117.396 4.89-.928 6.35-5.841 6.563-2.449.108-4.893.297-7.336.515-.398.035-1.108.453-1.085.612.068.492.312 1.214.685 1.366 1.164.476 2.425 1.03 3.639 1.01 2.721-.042 5.438-.412 8.159-.649.23-.02.462-.04.757-.068l-.002.003Zm-13.43-6.29c1.146-.153 2.182-.284 3.216-.427 1.34-.183 2.728-.225 4-.63.586-.186 1.25-1.058 1.313-1.674.054-.535-.565-1.346-1.106-1.695-1.432-.923-3.057-1.104-4.711-.595-2.386.736-3.507 2.866-2.712 5.018v.002ZM153.136 8.536c.276 2.867-1.582 5.007-4.322 5.159-1.608.089-2.409.936-2.403 2.54.007 2.344 0 4.686.014 7.03.01 1.617.72 2.409 2.332 2.43 1.278.016 2.555-.129 3.87-.204.541 1.291.52 2.566-.089 3.75-.277.534-.832 1.13-1.378 1.284-2.761.78-5.44.441-7.838-1.171-1.957-1.318-2.812-3.31-2.822-5.63-.028-5.857-.023-11.714-.004-17.574.007-2.116.94-3.103 3.077-3.403 1.869-.26 2.803.536 2.803 2.39 0 .781.045 1.567-.012 2.342-.058.832.279 1.088 1.083 1.069 1.901-.044 3.804-.014 5.686-.014l.003.002ZM162.843 2.541c0 1.51-.017 2.712.002 3.914.038 2.274-.415 2.072 2.152 2.084 1.549.007 3.1 0 4.64 0 .164 3.089-1.657 5.081-4.575 5.165-1.478.044-2.214.805-2.208 2.283.008 2.384.001 4.765.022 7.149.016 1.79.778 2.57 2.587 2.573.97 0 1.945-.117 2.913-.232.645-.075 1.004.178 1.004.802 0 .81-.008 1.636-.148 2.43-.206 1.158-.966 1.805-2.14 2.011-2.264.399-4.453.185-6.49-.883-2.161-1.135-3.494-2.97-3.53-5.424-.086-6.248-.051-12.5-.023-18.748.007-1.486.677-2.346 2.135-2.683 1.121-.26 2.295-.288 3.661-.443l-.002.002ZM267.842-.485c1.289.139 2.405.333 3.525.357 1.193.025 1.798.68 2.067 1.696.178.668.242 1.386.242 2.082.016 7.645.014 15.29.007 22.936 0 2.861-2.585 4.755-5.36 3.883-.242-.075-.453-.651-.46-1-.044-2.028-.021-4.058-.021-6.085V-.487v.002ZM212.498 8.351c0 .921.108 1.824-.024 2.69-.281 1.871-1.195 2.567-3.117 2.628-.972.03-1.955.056-2.908.218-1.364.23-2.26 1.038-2.433 2.468a20.88 20.88 0 0 0-.16 2.45c-.016 3.981-.007 7.966-.007 12.006-1.425-.377-2.812-.684-4.16-1.118-1.026-.33-1.596-1.172-1.603-2.23-.028-4.337-.126-8.675.049-13.004.139-3.361 2.675-5.855 6.038-6.07 2.719-.174 5.458-.035 8.325-.035V8.35Z"/></g><defs><clipPath id="a"><path fill="#fff" d="M0 0h300v38H0z"/></clipPath></defs></svg>