<svg viewBox="0 0 12 13" fill="none" xmlns="http://www.w3.org/2000/svg">
    <path fill-rule="evenodd" clip-rule="evenodd" d="M9.40523 7.44225L5.38253 11.412C5.08575 11.7049 5.08594 12.1797 5.38253 12.4727C5.67931 12.7656 6.16039 12.7656 6.45737 12.4727L11.7774 7.22268C12.0742 6.92981 12.0742 6.45486 11.7776 6.16218L6.45756 0.912134C6.30916 0.765696 6.1146 0.692383 5.92004 0.692383C5.72567 0.692383 5.53111 0.765696 5.38253 0.912321C5.08575 1.20501 5.08594 1.67995 5.38253 1.97264L9.40542 5.94224L0.760004 5.94224C0.340292 5.94224 -0.000189781 6.27824 0 6.69224C0 7.10643 0.340292 7.44225 0.760004 7.44225L9.40523 7.44225Z" fill="white"/>
</svg>
