<svg width="21" height="30" viewBox="0 0 21 30" fill="none" xmlns="http://www.w3.org/2000/svg"><path fill-rule="evenodd" clip-rule="evenodd" d="M19.5857 1.97819V24.4767C19.5857 27.1779 17.3959 29.3676 14.6947 29.3676H1.97819C1.43795 29.3676 1 28.9297 1 28.3894V1.97819C1 1.43795 1.43795 1 1.97819 1H18.6075C19.1477 1 19.5857 1.43795 19.5857 1.97819Z" fill="#FFC9D0" stroke="#FE4A64" stroke-linecap="round" stroke-linejoin="round"/><path d="M15.6729 20.5638C16.2131 20.5638 16.6511 20.1259 16.6511 19.5856C16.6511 19.0454 16.2131 18.6074 15.6729 18.6074C15.1327 18.6074 14.6947 19.0454 14.6947 19.5856C14.6947 20.1259 15.1327 20.5638 15.6729 20.5638Z" stroke="#FE4A64" stroke-linecap="round" stroke-linejoin="round"/><path d="M12.7383 23.4984C13.2786 23.4984 13.7165 23.0604 13.7165 22.5202C13.7165 21.9799 13.2786 21.542 12.7383 21.542C12.1981 21.542 11.7601 21.9799 11.7601 22.5202C11.7601 23.0604 12.1981 23.4984 12.7383 23.4984Z" stroke="#FE4A64" stroke-linecap="round" stroke-linejoin="round"/><path d="M16.6511 3.93457H3.93457V14.6947H16.6511V3.93457Z" fill="#FFE5E9" stroke="#FE4A64" stroke-linecap="round" stroke-linejoin="round"/><path d="M7.01099 26.2912L7.7055 25.5967" stroke="#FE4A64" stroke-linecap="round" stroke-linejoin="round"/><path d="M9.94556 26.2912L10.6401 25.5967" stroke="#FE4A64" stroke-linecap="round" stroke-linejoin="round"/><path d="M3.93457 20.564H7.84734" stroke="#FE4A64" stroke-linecap="round" stroke-linejoin="round"/><path d="M5.89099 22.5202V18.6074" stroke="#FE4A64" stroke-linecap="round" stroke-linejoin="round"/></svg>