<svg width="95" height="21" viewBox="0 0 95 21" fill="none" xmlns="http://www.w3.org/2000/svg">
<path fill-rule="evenodd" clip-rule="evenodd" d="M25.3949 7.44043H34.8284V9.05604H31.1192V18.1382H29.0795V9.05604H25.3867V7.44043H25.3949ZM34.4272 10.3925H36.1708V11.8874H36.2036C36.2612 11.676 36.3681 11.4721 36.5244 11.2758C36.6807 11.0796 36.8698 10.8908 37.0919 10.7323C37.3139 10.5662 37.5607 10.4378 37.8321 10.3321C38.1035 10.234 38.3831 10.1812 38.6628 10.1812C38.8766 10.1812 39.0329 10.1887 39.1151 10.1963C39.1534 10.1998 39.1917 10.2049 39.2309 10.2102C39.2758 10.2162 39.3217 10.2224 39.3701 10.2264V11.8723C39.2385 11.8496 39.1069 11.8345 38.9671 11.8194C38.8272 11.8043 38.6957 11.7968 38.5641 11.7968C38.2515 11.7968 37.9555 11.8572 37.6758 11.9704C37.3962 12.0836 37.1577 12.2573 36.9521 12.4762C36.7465 12.7027 36.582 12.9745 36.4586 13.3067C36.3352 13.6389 36.2777 14.0163 36.2777 14.4467V18.1309H34.4189V10.3925H34.4272ZM46.0873 18.1384H47.9132V10.4001H46.0544V14.8921C46.0544 15.1941 46.0215 15.4734 45.9475 15.7301C45.8735 15.9868 45.7583 16.2133 45.5939 16.3945C45.4376 16.5832 45.2238 16.7267 44.9606 16.8399C44.6974 16.9532 44.3766 17.006 43.9819 17.006C43.472 17.006 43.069 16.8626 42.7893 16.5832C42.5015 16.3039 42.3617 15.8207 42.3617 15.1413V10.3926H40.5029V15.3073C40.5029 16.3265 40.7497 17.089 41.2431 17.5949C41.7366 18.1007 42.5426 18.3498 43.6529 18.3498C44.1217 18.3498 44.5823 18.229 45.0346 17.995C45.4869 17.761 45.8241 17.4514 46.0544 17.0588H46.0873V18.1384ZM51.0803 15.6548C51.1378 16.1531 51.3434 16.5004 51.6971 16.7042C52.059 16.9005 52.4866 17.0062 52.9883 17.0062C53.161 17.0062 53.3584 16.9911 53.5805 16.9685C53.8025 16.9458 54.0164 16.893 54.2055 16.825C54.4029 16.7571 54.5592 16.6514 54.6908 16.5155C54.8141 16.3796 54.8717 16.206 54.8635 15.987C54.8553 15.7681 54.7648 15.5869 54.6003 15.451C54.4358 15.3076 54.2302 15.2019 53.9753 15.1113C53.7203 15.0282 53.4324 14.9527 53.1035 14.8923C52.8339 14.8428 52.5643 14.7883 52.2903 14.7328L52.1083 14.696C51.7629 14.6281 51.4257 14.5375 51.1049 14.4394C50.7842 14.3412 50.4963 14.2053 50.2414 14.0317C49.9864 13.8656 49.7808 13.6467 49.6327 13.3824C49.4765 13.1182 49.4025 12.7935 49.4025 12.401C49.4025 11.9782 49.5176 11.6309 49.7397 11.344C49.9617 11.0571 50.2496 10.8307 50.5868 10.657C50.9322 10.4834 51.3105 10.3626 51.73 10.2871C52.1494 10.2191 52.5524 10.1814 52.9308 10.1814C53.3666 10.1814 53.7861 10.2267 54.1809 10.3097C54.5756 10.3928 54.9375 10.5287 55.2583 10.725C55.579 10.9137 55.8422 11.1628 56.056 11.4648C56.2699 11.7668 56.4015 12.1367 56.459 12.5671H54.5181C54.4276 12.1594 54.2302 11.8801 53.9095 11.7442C53.5887 11.6007 53.2186 11.5328 52.8074 11.5328C52.6758 11.5328 52.5195 11.5403 52.3386 11.563C52.1577 11.5856 51.9932 11.6234 51.8287 11.6762C51.6724 11.7291 51.5408 11.8121 51.4257 11.9178C51.3188 12.0235 51.2612 12.1594 51.2612 12.333C51.2612 12.5444 51.3434 12.7105 51.4997 12.8388C51.656 12.9672 51.8616 13.0729 52.1165 13.1635C52.3715 13.2465 52.6593 13.322 52.9883 13.3824C53.2464 13.4298 53.5096 13.4818 53.7779 13.5349L53.9999 13.5787C54.3371 13.6467 54.6661 13.7372 54.9951 13.8354C55.3241 13.9335 55.6119 14.0694 55.8669 14.2431C56.1218 14.4167 56.3274 14.6281 56.4837 14.8848C56.64 15.1415 56.7222 15.4661 56.7222 15.8436C56.7222 16.3041 56.6071 16.6891 56.3768 17.0138C56.1465 17.3308 55.8504 17.5951 55.4886 17.7914C55.1267 17.9877 54.7155 18.1386 54.2713 18.2292C53.8272 18.3198 53.3831 18.3651 52.9472 18.3651C52.4126 18.3651 51.9191 18.3123 51.4668 18.199C51.0145 18.0858 50.6197 17.9197 50.2907 17.7008C49.9617 17.4743 49.6985 17.195 49.5094 16.8628C49.3202 16.5306 49.2215 16.1305 49.2051 15.6699H51.0803V15.6548ZM58.6202 10.3928H57.2303V11.6837H58.6366V16.2512C58.6449 16.5683 58.686 16.8552 58.7436 17.1043C58.8093 17.3535 58.9163 17.5573 59.089 17.7234C59.2535 17.8895 59.492 18.0178 59.7881 18.1009C60.0841 18.1839 60.4789 18.2292 60.9724 18.2292C61.178 18.2292 61.3754 18.2217 61.5728 18.199C61.6761 18.1867 61.7843 18.1765 61.8948 18.1662C61.9865 18.1576 62.0798 18.1489 62.1731 18.1386V16.8175C62.0415 16.8477 61.91 16.8627 61.7784 16.8703C61.6468 16.8778 61.5152 16.8778 61.3836 16.8778C61.1698 16.8778 61.0135 16.8552 60.8901 16.8099C60.7668 16.7646 60.6763 16.6967 60.6187 16.6061C60.5612 16.5155 60.52 16.4022 60.5036 16.2739C60.4871 16.138 60.4789 15.987 60.4789 15.8058V11.6686H62.1567V10.3928H60.4789V8.0675H58.6202V10.3928ZM63.4727 10.3928H65.2328V11.4422H65.2657C65.5289 10.9892 65.8907 10.6721 66.3595 10.4758C66.8283 10.2795 67.33 10.1814 67.881 10.1814C68.5472 10.1814 69.1229 10.2871 69.6164 10.506C70.1099 10.7174 70.5211 11.0118 70.8501 11.3893C71.179 11.7668 71.4176 12.2047 71.582 12.703C71.7465 13.2012 71.8288 13.7372 71.8288 14.3035C71.8288 14.8244 71.7548 15.3302 71.6067 15.8134C71.4587 16.3041 71.2366 16.7344 70.9405 17.1119C70.6445 17.4894 70.2661 17.7838 69.8056 18.0103C69.345 18.2368 68.8104 18.35 68.1854 18.35C67.9139 18.35 67.6425 18.3274 67.3711 18.2821C67.0997 18.2368 66.8365 18.1613 66.5898 18.0631C66.3431 17.965 66.1046 17.8367 65.899 17.6781C65.6851 17.5196 65.5124 17.3384 65.3644 17.1346H65.3315V20.9999H63.4727V10.3928ZM69.8218 13.2551C69.9205 13.5873 69.9698 13.927 69.9698 14.2743C69.9698 14.614 69.9287 14.9462 69.8547 15.2709C69.7724 15.5955 69.6326 15.8824 69.4434 16.1391C69.2543 16.3882 69.0158 16.5996 68.7197 16.7581C68.4236 16.9167 68.07 16.9997 67.6423 16.9997C67.264 16.9997 66.9268 16.9318 66.6389 16.7883C66.3511 16.6524 66.1043 16.4637 65.8987 16.2221C65.6849 15.9805 65.5368 15.6936 65.4299 15.3614C65.323 15.0293 65.2737 14.6669 65.2737 14.2743C65.2737 13.4439 65.471 12.7795 65.8658 12.2812C66.2606 11.7829 66.8527 11.5338 67.6341 11.5338C68.0124 11.5338 68.3496 11.6169 68.6457 11.7678C68.9335 11.9188 69.1803 12.1227 69.3776 12.3794C69.575 12.6361 69.7231 12.9229 69.8218 13.2551ZM73.2521 7.44128H75.1108V9.0569H73.2521V7.44128ZM75.1108 10.3927H73.2521V18.1386H75.1108V10.3927ZM76.7713 7.44128H78.63V18.139H76.7713V7.44128ZM82.5293 18.0405C83.0557 18.2443 83.656 18.35 84.3305 18.35C85.0049 18.35 85.6052 18.2443 86.1316 18.0405C86.658 17.8367 87.1103 17.5573 87.4722 17.195C87.8341 16.8326 88.1137 16.4022 88.3029 15.904C88.492 15.4057 88.5907 14.8546 88.5907 14.2582C88.5907 13.6693 88.492 13.1257 88.3029 12.6275C88.1137 12.1292 87.8341 11.6989 87.4722 11.3365C87.1021 10.9817 86.658 10.6948 86.1316 10.4909C85.6052 10.2871 85.0049 10.1814 84.3305 10.1814C83.656 10.1814 83.0557 10.2871 82.5293 10.4909C82.0029 10.6948 81.5506 10.9741 81.1887 11.3365C80.8268 11.6989 80.5472 12.1292 80.358 12.6275C80.1689 13.1257 80.0702 13.6693 80.0702 14.2582C80.0702 14.8546 80.1689 15.4057 80.358 15.904C80.5472 16.4022 80.8268 16.8326 81.1887 17.195C81.5588 17.5498 82.0029 17.8367 82.5293 18.0405ZM84.3313 16.9997C84.7425 16.9997 85.1044 16.9167 85.4087 16.7581C85.713 16.5996 85.9598 16.3882 86.1571 16.1315C86.3545 15.8748 86.4943 15.5804 86.593 15.2558C86.6835 14.9311 86.7329 14.5989 86.7329 14.2592C86.7329 13.927 86.6835 13.6024 86.593 13.2702C86.5026 12.938 86.3545 12.6511 86.1571 12.3945C85.9598 12.1378 85.713 11.9339 85.4087 11.7754C85.1044 11.6169 84.7425 11.5338 84.3313 11.5338C83.9201 11.5338 83.5582 11.6169 83.2539 11.7754C82.9496 11.9339 82.7029 12.1453 82.5055 12.3945C82.3081 12.6511 82.1683 12.938 82.0696 13.2702C81.9791 13.6024 81.9298 13.927 81.9298 14.2592C81.9298 14.5989 81.9791 14.9311 82.0696 15.2558C82.1601 15.5804 82.3081 15.8748 82.5055 16.1315C82.7029 16.3882 82.9496 16.5996 83.2539 16.7581C83.5582 16.9242 83.9201 16.9997 84.3313 16.9997ZM90.5411 10.3928H89.1511V11.6837H90.5575V16.2512C90.5657 16.5683 90.6068 16.8552 90.6644 17.1043C90.7302 17.3535 90.8371 17.5573 91.0098 17.7234C91.1743 17.8895 91.4128 18.0178 91.7089 18.1009C92.005 18.1839 92.3998 18.2292 92.8932 18.2292C93.0989 18.2292 93.2962 18.2217 93.4936 18.199C93.597 18.1867 93.7052 18.1765 93.8157 18.1662C93.9074 18.1576 94.0007 18.1489 94.094 18.1386V16.8175C93.9624 16.8477 93.8308 16.8627 93.6992 16.8703C93.5676 16.8778 93.4361 16.8778 93.3045 16.8778C93.0906 16.8778 92.9344 16.8552 92.811 16.8099C92.6876 16.7646 92.5972 16.6967 92.5396 16.6061C92.482 16.5155 92.4409 16.4022 92.4244 16.2739C92.408 16.138 92.3998 15.987 92.3998 15.8058V11.6686H94.0776V10.3928H92.3998V8.0675H90.5411V10.3928Z" fill="#000032"/>
<path fill-rule="evenodd" clip-rule="evenodd" d="M16.3271 12.0416L23.2192 7.44388H14.6986L12.0668 0L9.42677 7.44388L0.90625 7.43633L7.80655 12.0416L5.16651 19.4779L12.0668 14.8802L18.9589 19.4779L16.9226 13.7241L16.9227 13.7241L16.3306 12.0405L16.3274 12.0426L16.3271 12.0416ZM16.3274 12.0426L12.0703 14.8792L16.9226 13.7241L16.3274 12.0426Z" fill="#00B67A"/>
</svg>
