<svg width="27" height="24" viewBox="0 0 27 24" fill="none" xmlns="http://www.w3.org/2000/svg"><path d="M24.807 10.8279V21.6884C24.807 21.9764 24.6926 22.2526 24.4889 22.4563C24.2852 22.66 24.009 22.7744 23.721 22.7744H3.08605C2.79801 22.7744 2.52177 22.66 2.3181 22.4563C2.11442 22.2526 2 21.9764 2 21.6884V11.9139" fill="#FFC9D0"/><path d="M24.807 10.8279V21.6884C24.807 21.9764 24.6926 22.2526 24.4889 22.4563C24.2852 22.66 24.009 22.7744 23.721 22.7744H3.08605C2.79801 22.7744 2.52177 22.66 2.3181 22.4563C2.11442 22.2526 2 21.9764 2 21.6884V11.9139" stroke="#FE4A64"/><path d="M15.6739 14.457L26 12.1748V5.55957C26 5.26716 25.8855 4.98672 25.6816 4.77996C25.4778 4.57319 25.2013 4.45703 24.913 4.45703H2.08696C1.79868 4.45703 1.52221 4.57319 1.31836 4.77996C1.11452 4.98672 1 5.26716 1 5.55957V12.1748L11.3261 14.457" fill="#FFC9D0"/><path d="M15.6739 14.457L26 12.1748V5.55957C26 5.26716 25.8855 4.98672 25.6816 4.77996C25.4778 4.57319 25.2013 4.45703 24.913 4.45703H2.08696C1.79868 4.45703 1.52221 4.57319 1.31836 4.77996C1.11452 4.98672 1 5.26716 1 5.55957V12.1748L11.3261 14.457" stroke="#FE4A64"/><path d="M17 13H11V16.2581H17V13Z" fill="#FDE3E7" stroke="#FE4A64" stroke-linejoin="round"/><path d="M8.66669 4.80117V3.1721C8.66669 2.59602 8.89553 2.04354 9.30288 1.63619C9.71023 1.22885 10.2627 1 10.8388 1H15.1178C15.6939 1 16.2464 1.22885 16.6537 1.63619C17.0611 2.04354 17.2899 2.59602 17.2899 3.1721V4.80117" stroke="#FE4A64"/></svg>