<svg width="30" height="31" viewBox="0 0 30 31" fill="none" xmlns="http://www.w3.org/2000/svg"><rect x="23" y="14" width="5" height="5" fill="#FFC9D0"/><path d="M15.8291 14.1514C14.6482 12.7146 12.5127 11.9126 10.6774 11.9126H6.74101C2.66196 11.9126 0.492035 13.6003 0.492035 18.2747V25.5865C0.492035 26.8363 1.53025 28.0468 3.24749 28.0468V29.6902H25.8029V25.5865L27.9383 25.2126C29.193 24.9961 29.7048 24.0563 29.4145 22.7819L27.9826 17.0249" fill="#FFC9D0"/><path d="M15.8291 14.1514C14.6482 12.7146 12.5127 11.9126 10.6774 11.9126H6.74101C2.66196 11.9126 0.492035 13.6003 0.492035 18.2747V25.5865C0.492035 26.8363 1.53025 28.0468 3.24749 28.0468V29.6902H25.8029V25.5865L27.9383 25.2126C29.193 24.9961 29.7048 24.0563 29.4145 22.7819L27.9826 17.0249" stroke="#FE4A64" stroke-width="0.8" stroke-linejoin="round"/><path d="M16.1735 29.6754V25.5865L14.0331 25.2125C12.7784 24.996 12.2667 24.0562 12.5274 22.7818L14.0479 16.6165C14.7416 14.2891 16.5081 13.3838 19.2389 13.3838H22.6833C23.5335 13.3636 24.3813 13.4833 25.1927 13.738" fill="#FFC9D0"/><path d="M16.1735 29.6754V25.5865L14.0331 25.2125C12.7784 24.996 12.2667 24.0562 12.5274 22.7818L14.0479 16.6165C14.7416 14.2891 16.5081 13.3838 19.2389 13.3838H22.6833C23.5335 13.3636 24.3813 13.4833 25.1927 13.738" stroke="#FE4A64" stroke-width="0.8" stroke-linejoin="round"/><path d="M27.3577 17.069C27.8305 17.1098 28.3018 16.9749 28.6813 16.6901C28.8914 16.5295 29.0713 16.3329 29.2127 16.1095C29.9213 15.027 29.2472 14.4562 28.2729 13.5656C27.653 12.9998 27.0625 12.4782 26.5311 12.429C26.4236 12.4187 26.3152 12.4299 26.2121 12.462C26.109 12.4941 26.0134 12.5465 25.9308 12.616C25.7544 12.7758 25.6077 12.9657 25.4978 13.1769C25.1597 13.664 25.0088 14.2568 25.073 14.8463C25.1372 15.4357 25.4121 15.9822 25.8472 16.385C26.2627 16.7716 26.7931 17.0118 27.3577 17.069V17.069Z" fill="#FFC9D0" stroke="#FE4A64" stroke-width="0.8" stroke-linejoin="round"/><path d="M20.9857 12.637C21.8355 12.637 22.6662 12.385 23.3727 11.9127C24.0792 11.4405 24.6298 10.7693 24.9547 9.98415C25.2797 9.19896 25.3645 8.33501 25.1983 7.50162C25.0322 6.66823 24.6226 5.90285 24.0214 5.3023C23.4201 4.70175 22.6543 4.29303 21.8207 4.12784C20.9871 3.96265 20.1233 4.04842 19.3384 4.37429C18.5536 4.70017 17.8831 5.25151 17.4117 5.95855C16.9403 6.6656 16.6892 7.49659 16.6901 8.34637C16.6895 8.91043 16.8002 9.46906 17.0159 9.99023C17.2316 10.5114 17.548 10.9849 17.9471 11.3835C18.3462 11.7821 18.82 12.098 19.3415 12.3131C19.8629 12.5282 20.4216 12.6383 20.9857 12.637V12.637Z" fill="#FFC9D0" stroke="#FE4A64" stroke-width="0.8" stroke-linejoin="round"/><path d="M8.71409 11.8066C9.62908 11.8076 10.5238 11.5371 11.2851 11.0295C12.0463 10.5219 12.6399 9.79985 12.9907 8.95479C13.3416 8.10972 13.4339 7.17959 13.256 6.28206C13.0781 5.38453 12.6379 4.55993 11.9913 3.91259C11.3446 3.26525 10.5205 2.82425 9.62316 2.64539C8.72582 2.46652 7.79559 2.55783 6.95015 2.90776C6.10471 3.25768 5.38206 3.85051 4.87362 4.61123C4.36517 5.37195 4.09378 6.26639 4.09378 7.18138C4.09314 7.78854 4.21217 8.38987 4.44407 8.951C4.67597 9.51213 5.0162 10.0221 5.4453 10.4516C5.8744 10.8812 6.38395 11.2219 6.94484 11.4544C7.50572 11.6869 8.10693 11.8066 8.71409 11.8066V11.8066Z" fill="#FFC9D0" stroke="#FE4A64" stroke-width="0.8" stroke-linejoin="round"/><path d="M22.0113 20.558L23.6904 25.4425C23.7403 25.5828 23.7617 25.7315 23.7535 25.8802C23.7453 26.0288 23.7076 26.1743 23.6425 26.3081C23.5775 26.442 23.4865 26.5616 23.3747 26.66C23.263 26.7583 23.1328 26.8334 22.9918 26.8809C22.7076 26.9765 22.3971 26.9561 22.1279 26.8242C21.8586 26.6923 21.6522 26.4595 21.5534 26.1764C21.5534 26.1764 21.3303 25.5893 21.2716 25.3662C21.1665 24.948 20.9454 24.568 20.6338 24.2699C20.3222 23.9718 19.9328 23.7678 19.5104 23.6813L14.2266 22.6539C14.4203 21.2625 15.9526 18.1333 18.7824 17.3701" fill="#FFE5E9"/><path d="M22.0113 20.558L23.6904 25.4425C23.7403 25.5828 23.7617 25.7315 23.7535 25.8802C23.7453 26.0288 23.7076 26.1743 23.6425 26.3081C23.5775 26.442 23.4865 26.5616 23.3747 26.66C23.263 26.7583 23.1328 26.8334 22.9918 26.8809C22.7076 26.9765 22.3971 26.9561 22.1279 26.8242C21.8586 26.6923 21.6522 26.4595 21.5534 26.1764C21.5534 26.1764 21.3303 25.5893 21.2716 25.3662C21.1665 24.948 20.9454 24.568 20.6338 24.2699C20.3222 23.9718 19.9328 23.7678 19.5104 23.6813L14.2266 22.6539C14.4203 21.2625 15.9526 18.1333 18.7824 17.3701" stroke="#FE4A64" stroke-width="0.8" stroke-linejoin="round"/><path d="M21.2422 14.8041C21.3773 14.8041 21.5123 14.8041 21.6591 14.8041C22.3367 14.797 22.9938 15.0358 23.5088 15.4762C24.0237 15.9167 24.3615 16.5289 24.4595 17.1994C24.6004 18.3208 25.8626 18.2327 25.8391 19.0194C25.8391 20.0233 25.07 20.6456 23.937 20.6456C22.9947 20.6455 22.0534 20.5847 21.119 20.4636C18.7706 19.9411 18.7354 18.2973 18.7706 17.5869C18.7656 17.2848 18.7971 16.9832 18.8646 16.6887" fill="#F3DADE"/><path d="M21.2422 14.8041C21.3773 14.8041 21.5123 14.8041 21.6591 14.8041C22.3367 14.797 22.9938 15.0358 23.5088 15.4762C24.0237 15.9167 24.3615 16.5289 24.4595 17.1994C24.6004 18.3208 25.8626 18.2327 25.8391 19.0194C25.8391 20.0233 25.07 20.6456 23.937 20.6456C22.9947 20.6455 22.0534 20.5847 21.119 20.4636C18.7706 19.9411 18.7354 18.2973 18.7706 17.5869C18.7656 17.2848 18.7971 16.9832 18.8646 16.6887" stroke="#FE4A64" stroke-width="0.8" stroke-linejoin="round"/><path d="M21.4066 18.3388C21.8528 18.239 22.164 17.8515 21.6825 16.8887C21.5358 16.3825 21.5358 15.845 21.6825 15.3388C21.7413 15.057 21.5064 14.7517 20.8489 14.7517C19.6747 14.7517 18.5651 15.4503 18.6884 16.0433C18.9467 17.4464 20.344 18.5854 21.4066 18.3388Z" fill="#F3DADE" stroke="#FE4A64" stroke-width="0.8" stroke-linejoin="round"/><line x1="3.68794" y1="29.55" x2="3.68794" y2="20.1052" stroke="#FE4A64" stroke-width="0.9" stroke-linecap="round"/></svg>