<svg width="34" height="28" viewBox="0 0 34 28" fill="none" xmlns="http://www.w3.org/2000/svg"><path d="M21.5001 6.18384L24.5001 6.18369L29.2579 6.18375L32.2926 6.31598L32.6695 6.81846L28.8348 19.5986H12.2265L8.23975 6.31598L17.2645 6.18375L21.5001 6.18384Z" fill="#FFC9D0"/><path d="M1 1.00009H6.28926C6.37392 0.998268 6.4568 1.02452 6.52497 1.07476C6.59315 1.12499 6.64277 1.19637 6.66611 1.27777L12.2397 19.5984H28.8347L32.6694 6.81827C32.687 6.75974 32.6906 6.6979 32.68 6.63772C32.6693 6.57754 32.6446 6.52071 32.6079 6.47181C32.5713 6.42291 32.5236 6.38332 32.4688 6.35622C32.4141 6.32912 32.3537 6.31527 32.2926 6.31579H8.27273" stroke="#FE4A64" stroke-linecap="round" stroke-linejoin="round"/><path d="M13.2181 26.9109C14.5035 26.9109 15.5454 25.8689 15.5454 24.5836C15.5454 23.2983 14.5035 22.2563 13.2181 22.2563C11.9328 22.2563 10.8909 23.2983 10.8909 24.5836C10.8909 25.8689 11.9328 26.9109 13.2181 26.9109Z" fill="#FDE3E7" stroke="#FE4A64"/><path d="M27.5057 26.9109C28.7911 26.9109 29.833 25.8689 29.833 24.5836C29.833 23.2983 28.7911 22.2563 27.5057 22.2563C26.2204 22.2563 25.1785 23.2983 25.1785 24.5836C25.1785 25.8689 26.2204 26.9109 27.5057 26.9109Z" fill="#FDE3E7" stroke="#FE4A64"/><path d="M14.8645 22.9241H25.8794" stroke="#FE4A64"/><path d="M9.39673 10.3027H31.5984" stroke="#FE4A64"/><path d="M10.7786 14.8381H30.2232" stroke="#FE4A64"/><path d="M14.2231 6.18359L17.8992 19.5985" stroke="#FE4A64"/><path d="M23.5256 19.5985L26.8447 6.177" stroke="#FE4A64"/></svg>