<svg width="60" height="32" viewBox="0 0 60 32" fill="none" xmlns="http://www.w3.org/2000/svg">
<g clip-path="url(#clip0_1695_3214)">
<path d="M15.3394 5.22111V25.4592C15.3394 25.5957 15.4504 25.7062 15.5875 25.7062H19.0221C19.1592 25.7062 19.2702 25.5957 19.2702 25.4592V5.22111C19.2702 5.08456 19.1592 4.9741 19.0221 4.9741H15.5875C15.4504 4.9741 15.3394 5.08456 15.3394 5.22111ZM4.60538 14.9111C4.60538 14.2532 5.53321 13.7761 6.95604 13.7761C8.57883 13.7761 10.1035 14.3491 11.052 15.155C11.2282 15.3049 11.4976 15.2576 11.6135 15.0573L12.7717 12.7644C12.8607 12.6096 12.8199 12.4136 12.6766 12.3062C11.2459 11.2356 9.32011 10.4666 6.92495 10.4666C2.99722 10.4666 0.801404 12.6527 0.801404 15.1465C0.801404 20.9699 9.67734 18.9543 9.67734 21.5149C9.67734 22.2152 8.87327 22.8088 7.17245 22.8088C5.47164 22.8088 3.48491 22.1448 2.3236 21.2272C2.15047 21.09 1.89505 21.1368 1.77861 21.3243L0.463679 23.5152C0.371628 23.6639 0.402108 23.8575 0.536223 23.9698C2.1206 25.2953 4.5115 26.0776 6.98652 26.0776C11.1307 26.0776 13.4502 24.0457 13.4502 21.3049C13.4502 15.4366 4.60477 17.2495 4.60477 14.9104L4.60538 14.9111ZM21.9988 10.7143V25.4507C21.9988 25.5872 22.1098 25.6977 22.2469 25.6977H25.6815C25.8186 25.6977 25.9296 25.5872 25.9296 25.4507V10.7143C25.9296 10.5777 25.8186 10.4673 25.6815 10.4673H22.2469C22.1098 10.4673 21.9988 10.5777 21.9988 10.7143ZM38.718 25.4507C38.718 25.5872 38.829 25.6977 38.9661 25.6977H42.4007C42.5378 25.6977 42.6488 25.5872 42.6488 25.4507V15.8069C42.6488 12.9101 40.5225 10.443 37.2415 10.443C34.7958 10.443 33.1449 11.6683 32.5573 12.7541V10.7143C32.5573 10.5777 32.4463 10.4673 32.3092 10.4673H28.8746C28.7375 10.4673 28.6265 10.5777 28.6265 10.7143V25.4507C28.6265 25.5872 28.7375 25.6977 28.8746 25.6977H32.3092C32.4463 25.6977 32.5573 25.5872 32.5573 25.4507V17.3599C32.5573 15.5538 33.8899 13.9297 35.7705 13.9297C37.372 13.9297 38.7174 14.7575 38.7174 16.8228V25.4513L38.718 25.4507ZM45.4335 29.6007C45.3689 29.7039 45.389 29.8405 45.4823 29.9188C47.2952 31.447 49.2649 31.9992 51.76 31.9992C55.4439 31.9992 59.8392 30.3509 59.8392 24.6805V11.059C59.8392 10.9224 59.7283 10.812 59.5911 10.812H56.1255C55.9883 10.812 55.8774 10.9224 55.8774 11.059V12.7225C54.9093 11.1476 53.2365 10.4418 51.4412 10.4418C47.6647 10.4418 44.6715 13.6262 44.6715 18.4955C44.6715 22.5405 47.5251 26.077 51.4412 26.077C53.2944 26.077 54.7014 25.214 55.8774 23.7349V24.7728C55.8774 27.7005 53.6486 28.7941 51.76 28.7941C49.9824 28.7941 48.4791 28.3299 47.3019 27.1701C47.1886 27.0584 47.0014 27.0802 46.9173 27.215L45.4329 29.6001L45.4335 29.6007ZM52.5032 22.1224C50.2744 22.1224 48.7266 20.6276 48.7266 18.07C48.7266 15.5125 50.2744 13.9248 52.5032 13.9248C54.5435 13.9248 55.8774 15.8451 55.8774 18.07C55.8774 20.295 54.5466 22.1224 52.5032 22.1224ZM21.6239 4.58689C21.6379 3.27596 22.7157 2.22661 24.0319 2.24057C25.3486 2.25453 26.4026 3.32694 26.3886 4.63787C26.3746 5.91724 25.2968 6.99815 23.9807 6.98419C22.6639 6.97023 21.6099 5.86626 21.6239 4.58689ZM28.8399 6.95324C29.344 6.11084 29.4842 5.2023 29.4922 4.57597C29.4976 3.94963 29.3775 3.03866 28.8917 2.18534C28.8149 2.04515 28.952 1.97292 29.0709 2.00327C30.256 2.30369 31.1259 3.3494 31.1198 4.58628V4.60146C31.0991 5.83773 30.2066 6.86463 29.0154 7.14017C28.896 7.16748 28.7606 7.09222 28.8399 6.95384V6.95324ZM33.2553 7.88606C33.9594 6.70926 34.1551 5.44081 34.166 4.56626C34.174 3.6917 34.0057 2.419 33.3272 1.22764C33.2205 1.03221 33.412 0.930858 33.5778 0.973342C35.2329 1.39332 36.4478 2.85355 36.4393 4.58021V4.60146C36.4106 6.32812 35.1646 7.76164 33.5003 8.14642C33.3339 8.18466 33.1443 8.07966 33.2553 7.88667V7.88606ZM38.6101 0.0119942C40.7066 0.543648 42.2452 2.39291 42.2342 4.58021V4.60692C42.1977 6.79362 40.6194 8.67747 38.512 9.16421C38.301 9.21277 38.0608 9.01127 38.2017 8.76729C39.0935 7.27672 39.3416 5.67023 39.3551 4.56261C39.3654 3.455 39.1521 1.84365 38.2925 0.334264C38.1572 0.0866443 38.3998 -0.041414 38.6095 0.0119942H38.6101ZM58.175 31.9999H58.378V31.2333H58.6535V31.0567H57.8982V31.2333H58.175V31.9999ZM59.518 31.623L59.6368 31.3213V31.9999H59.8398V31.0567H59.5557L59.3253 31.6448L59.0955 31.0567H58.8126V31.9999H59.0144V31.3213L59.2814 31.9999H59.3692L59.5173 31.623" fill="#999999"/>
</g>
<defs>
<clipPath id="clip0_1695_3214">
<rect width="59.4286" height="32" fill="white" transform="translate(0.410583)"/>
</clipPath>
</defs>
</svg>
