<svg xmlns="http://www.w3.org/2000/svg" width="1em" height="1em" viewBox="0 0 24 25" fill="none" class="ni-ocefd3"><mask id="collapse-all-arrow_svg__a" fill="#fff"><path fill-rule="evenodd" d="M13.426 6.067a.61.61 0 00-1.218.024l.116 5.743a.61.61 0 00.593.597l5.78.153a.61.61 0 10.032-1.218l-4.362-.116 6.237-6.237a.61.61 0 10-.862-.861l-6.229 6.228-.087-4.313z" clip-rule="evenodd"/></mask><path fill="currentColor" d="M12.805 5.47l.04 2-.04-2zm.621.597l-2 .04 2-.04zm-1.218.024l2-.04-2 .04zm.116 5.743l-2 .04 2-.04zm.593.597l.053-2-.053 2zm5.78.153l.053-2-.053 2zm.625-.593l2 .053-2-.053zm-.593-.625l.053-2-.053 2zm-4.362-.116l-1.414-1.414a2 2 0 001.361 3.414l.053-2zm5.375-7.098l-1.414-1.415 1.414 1.415zm-6.229 6.228l-2 .04a2 2 0 003.415 1.375l-1.415-1.415zm-.668-2.91a1.39 1.39 0 01-1.418-1.363l3.999-.08a2.61 2.61 0 00-2.662-2.557l.081 4zm1.362-1.419a1.39 1.39 0 01-1.362 1.418l-.08-3.999a2.61 2.61 0 00-2.557 2.662l4-.081zm.116 5.743l-.116-5.743-3.999.08.116 5.744 4-.081zm-1.353-1.362a1.39 1.39 0 011.353 1.362l-3.999.08a2.61 2.61 0 002.54 2.556l.106-3.998zm5.78.153l-5.78-.153-.106 3.998 5.78.154.106-4zm-1.427 1.353a1.39 1.39 0 011.427-1.353l-.106 3.998a2.61 2.61 0 002.677-2.539l-3.998-.106zm1.353 1.427a1.39 1.39 0 01-1.353-1.427l3.998.106a2.61 2.61 0 00-2.539-2.677l-.106 3.998zm-4.362-.115l4.362.115.106-3.998-4.362-.116-.106 3.999zM19.19 3.6l-6.237 6.236 2.828 2.829 6.237-6.237-2.828-2.829zm0 1.966a1.39 1.39 0 010-1.967l2.828 2.829a2.61 2.61 0 000-3.69L19.19 5.565zm1.966 0a1.39 1.39 0 01-1.966 0l2.828-2.829a2.61 2.61 0 00-3.69 0l2.828 2.829zm-6.228 6.229l6.228-6.23-2.828-2.828-6.229 6.23 2.829 2.828zm-3.501-5.688l.087 4.314 3.999-.08-.087-4.315-4 .081z" mask="url(#collapse-all-arrow_svg__a)"/><mask id="collapse-all-arrow_svg__b" fill="#fff"><path fill-rule="evenodd" d="M10.576 19.515a.61.61 0 101.218-.024l-.116-5.743a.61.61 0 00-.593-.597l-5.78-.153a.61.61 0 00-.032 1.218l4.361.116-6.237 6.237a.61.61 0 00.862.861l6.23-6.23.087 4.315z" clip-rule="evenodd"/></mask><path fill="currentColor" d="M11.197 20.112l-.024-1.218.024 1.218zm-.621-.597l1.218-.024-1.218.024zm1.218-.024l-1.218.024 1.218-.024zm-.116-5.743l1.219-.025-1.219.025zm-.593-.597l-.032 1.218.032-1.218zm-5.78-.153l-.032 1.218.032-1.218zm-.625.593l-1.218-.032 1.218.032zm.593.625l-.032 1.218.032-1.218zm4.361.116l.862.861a1.219 1.219 0 00-.83-2.08l-.032 1.219zm.855.869l1.218-.025a1.219 1.219 0 00-2.08-.837l.862.862zm.684 3.693a.61.61 0 01.621.597l-2.437.049a1.828 1.828 0 001.865 1.79l-.05-2.436zm-.597.621a.61.61 0 01.597-.621l.049 2.437a1.828 1.828 0 001.79-1.865l-2.436.05zm-.116-5.743l.116 5.743 2.437-.049-.116-5.743-2.437.05zm.593.597a.61.61 0 01-.593-.597l2.437-.049a1.828 1.828 0 00-1.78-1.79l-.064 2.436zm-5.78-.153l5.78.153.064-2.437-5.78-.152-.064 2.436zm.625-.593a.61.61 0 01-.625.593l.064-2.436a1.828 1.828 0 00-1.875 1.779l2.436.064zm-.593-.625a.61.61 0 01.593.625l-2.436-.064a1.828 1.828 0 001.779 1.875l.064-2.436zm4.361.115l-4.36-.115-.065 2.436 4.36.116.065-2.437zM4.26 21.43l6.237-6.237-1.724-1.723-6.237 6.237L4.26 21.43zm0-.861a.61.61 0 010 .861l-1.724-1.723a1.828 1.828 0 000 2.585L4.26 20.57zm-.862 0a.61.61 0 01.862 0l-1.724 1.723a1.828 1.828 0 002.586 0L3.397 20.57zm6.23-6.23l-6.23 6.23 1.724 1.723 6.23-6.23-1.724-1.723zm2.167 5.152l-.087-4.315-2.437.05.087 4.314 2.437-.05z" mask="url(#collapse-all-arrow_svg__b)"/></svg>