<svg width="179" height="24" viewBox="0 0 179 24" fill="none" xmlns="http://www.w3.org/2000/svg">
<path fill-rule="evenodd" clip-rule="evenodd" d="M57.7015 12.201C57.6904 14.3049 57.6904 15.3625 57.7015 15.3625H57.7238C57.8462 15.3959 57.9909 15.4292 58.1468 15.4626C58.3026 15.496 58.5698 15.5294 58.9483 15.574C59.3268 15.6185 59.683 15.6185 60.0169 15.5962C60.3397 15.574 60.7071 15.496 61.119 15.3847C61.5308 15.2623 61.8648 15.0842 62.1431 14.8504C62.4214 14.6055 62.6552 14.2715 62.8444 13.8151C63.0336 13.3699 63.1338 12.8355 63.1338 12.2344C63.1338 11.5999 63.0559 11.0433 62.9001 10.5647C62.7442 10.0971 62.5327 9.72978 62.2767 9.46262C62.0206 9.19545 61.7201 8.98395 61.3639 8.8281C61.0077 8.67226 60.6737 8.57208 60.3509 8.53868C60.0281 8.50529 59.6718 8.50528 59.3156 8.52755C58.9483 8.54981 58.6366 8.5832 58.3917 8.63886C58.1468 8.68339 57.913 8.73905 57.7126 8.80584L57.7015 12.201ZM57.7015 5.34386L56.2655 7.0025C56.5883 6.89118 56.8778 6.73533 57.1338 6.52383C57.401 6.31232 57.6013 6.14535 57.7572 6.01177C57.913 5.87819 58.2024 5.75574 58.6255 5.64442C59.0596 5.5331 59.6273 5.47744 60.3286 5.47744C60.9631 5.47744 61.5754 5.54424 62.1654 5.66669C62.7553 5.80027 63.3342 6.0229 63.913 6.33459C64.4919 6.65741 64.9817 7.05816 65.4047 7.53682C65.8277 8.01549 66.1617 8.63887 66.4177 9.39583C66.6737 10.1528 66.7962 11.0099 66.7962 11.9673C66.7962 14.4497 66.2618 16.2196 65.1932 17.2771C64.1245 18.3458 62.3657 18.869 59.9056 18.869C59.1264 18.869 58.4251 18.8244 57.8017 18.7465C57.1783 18.6686 56.6885 18.5795 56.3212 18.4794C55.9538 18.3792 55.6199 18.2567 55.3193 18.0786C55.0188 17.9116 54.8073 17.7781 54.6959 17.6667C54.5846 17.5665 54.4622 17.4218 54.3286 17.2549C54.195 17.0879 54.1171 16.9988 54.106 16.9766V2.86148C54.106 2.22697 54.1839 1.73716 54.3286 1.40321C54.4844 1.06926 54.6959 0.85776 54.9631 0.768706C55.2303 0.679651 55.5197 0.635123 55.8091 0.635123C56.0985 0.635123 56.4325 0.612855 56.7887 0.568328C57.1449 0.523801 57.4455 0.412483 57.6904 0.234375L57.7015 5.34386Z" fill="#999999"/>
<path fill-rule="evenodd" clip-rule="evenodd" d="M72.6404 11.5781C72.9076 11.3889 73.3528 11.2553 73.9651 11.1997C74.5773 11.1329 75.1562 11.0995 75.6905 11.0883C76.2248 11.0772 76.7035 10.9659 77.1154 10.7544C77.5272 10.5429 77.7276 10.1978 77.7165 9.73027C77.7165 9.31839 77.3937 8.9733 76.7369 8.69501C75.8241 8.31653 74.9447 8.28313 74.0764 8.59482C72.8853 9.0401 72.4066 10.0308 72.6404 11.5781ZM72.7628 14.1051C72.7628 14.606 73.0077 14.9733 73.5087 15.2182C73.9985 15.4631 74.633 15.5967 75.3899 15.5967C76.1469 15.6078 76.8927 15.5744 77.6163 15.4965C78.3399 15.4297 79.03 15.3407 79.6757 15.2405C80.3213 15.1403 80.6887 15.0958 80.7889 15.0958C80.8556 16.4872 80.5773 17.4668 79.9651 18.0457C79.3529 18.6245 78.1172 18.914 76.2693 18.914C73.7202 18.914 71.8389 18.3908 70.6478 17.3555C69.4567 16.3203 68.8556 14.5169 68.8556 11.9566C68.8556 10.6765 69.0226 9.59668 69.3454 8.70614C69.6682 7.8156 70.1469 7.14769 70.7814 6.68016C71.4159 6.21262 72.1172 5.8898 72.8853 5.70056C73.6534 5.51132 74.5662 5.41113 75.6014 5.41113C77.5829 5.41113 79.03 5.83415 79.9651 6.66903C80.9002 7.50391 81.3677 8.85085 81.3677 10.6876C81.3677 11.3889 81.2341 11.9566 80.9558 12.3796C80.6887 12.8026 80.3324 13.0921 79.8872 13.2256C79.453 13.3704 78.9187 13.4705 78.3065 13.5373C77.6942 13.6041 77.082 13.6264 76.492 13.593C75.8909 13.5707 75.2452 13.593 74.5551 13.682C73.8538 13.7711 73.2526 13.9047 72.7628 14.1051Z" fill="#999999"/>
<path fill-rule="evenodd" clip-rule="evenodd" d="M90.9855 15.5852C91.2082 16.2865 91.2416 16.9322 91.0857 17.5222C90.9299 18.1122 90.6516 18.5018 90.2731 18.7021C89.4382 18.9582 88.6367 19.0361 87.8464 18.9248C87.056 18.8246 86.3547 18.6019 85.7425 18.268C85.1302 17.934 84.6293 17.4442 84.2508 16.8097C83.8723 16.1752 83.6719 15.4405 83.6719 14.6279V4.31988C83.6608 3.83009 83.7387 3.41821 83.9057 3.08426C84.0838 2.76144 84.3398 2.51654 84.6961 2.37182C85.0412 2.22711 85.4196 2.13806 85.8204 2.09353C86.2211 2.049 86.6998 2.049 87.2564 2.0824V5.56664H91.3751V5.74475C91.3751 5.81154 91.364 5.96738 91.3306 6.19002C91.2972 6.41266 91.2527 6.62416 91.1859 6.83567C91.1191 7.04717 91.0189 7.2698 90.8631 7.5147C90.7072 7.7596 90.5291 7.97111 90.3287 8.14922C90.1172 8.32732 89.8389 8.47204 89.4939 8.59449C89.1376 8.71694 88.748 8.77259 88.325 8.77259C87.9465 8.77259 87.5903 8.78373 87.2675 8.79486L87.2898 14.3273C87.2786 14.7615 87.3566 15.0954 87.5569 15.3181C87.7462 15.5518 88.0022 15.6854 88.3362 15.73C88.659 15.7745 88.9929 15.7745 89.3158 15.7522C89.6386 15.73 89.9725 15.6966 90.3176 15.6409C90.6404 15.6075 90.8742 15.5852 90.9855 15.5852Z" fill="#999999"/>
<path fill-rule="evenodd" clip-rule="evenodd" d="M100.759 15.5852C100.982 16.2865 101.015 16.9322 100.859 17.5222C100.704 18.1122 100.425 18.5018 100.047 18.7021C99.2119 18.9582 98.4104 19.0361 97.62 18.9248C96.8297 18.8246 96.1284 18.6019 95.5161 18.268C94.9039 17.934 94.403 17.4442 94.0245 16.8097C93.646 16.1752 93.4456 15.4405 93.4456 14.6279V4.31988C93.4345 3.83009 93.5124 3.41821 93.6794 3.08426C93.8575 2.76144 94.1135 2.51654 94.4698 2.37182C94.8148 2.22711 95.1933 2.13806 95.5941 2.09353C95.9948 2.049 96.4735 2.049 97.0301 2.0824V5.56664H101.149V5.74475C101.149 5.81154 101.138 5.96738 101.104 6.19002C101.071 6.41266 101.026 6.62416 100.96 6.83567C100.893 7.04717 100.793 7.2698 100.637 7.5147C100.481 7.7596 100.303 7.97111 100.102 8.14922C99.8909 8.32732 99.6126 8.47204 99.2675 8.59449C98.9113 8.71694 98.5217 8.77259 98.0987 8.77259C97.7202 8.77259 97.364 8.78373 97.0412 8.79486L97.0635 14.3273C97.0523 14.7615 97.1302 15.0954 97.3306 15.3181C97.5199 15.5518 97.7759 15.6854 98.1098 15.73C98.4327 15.7745 98.7666 15.7745 99.0894 15.7522C99.4123 15.73 99.7462 15.6966 100.091 15.6409C100.425 15.6075 100.648 15.5852 100.759 15.5852Z" fill="#999999"/>
<path fill-rule="evenodd" clip-rule="evenodd" d="M106.459 11.5781C106.726 11.3889 107.171 11.2553 107.783 11.1997C108.396 11.1329 108.974 11.0995 109.509 11.0883C110.043 11.0772 110.522 10.9659 110.934 10.7544C111.345 10.5429 111.546 10.1978 111.535 9.73027C111.535 9.31839 111.212 8.9733 110.555 8.69501C109.642 8.31653 108.763 8.28313 107.895 8.59482C106.692 9.0401 106.214 10.0308 106.459 11.5781ZM106.581 14.1051C106.581 14.606 106.826 14.9733 107.327 15.2182C107.817 15.4631 108.451 15.5967 109.208 15.5967C109.965 15.6078 110.711 15.5744 111.435 15.4965C112.158 15.4297 112.848 15.3407 113.494 15.2405C114.14 15.1403 114.507 15.0958 114.607 15.0958C114.674 16.4872 114.396 17.4668 113.783 18.0457C113.171 18.6245 111.935 18.914 110.088 18.914C107.538 18.914 105.657 18.3908 104.466 17.3555C103.275 16.3203 102.674 14.5169 102.674 11.9566C102.674 10.6765 102.841 9.59668 103.164 8.70614C103.486 7.8156 103.965 7.14769 104.6 6.68016C105.234 6.21262 105.935 5.8898 106.704 5.70056C107.472 5.51132 108.384 5.41113 109.42 5.41113C111.401 5.41113 112.848 5.83415 113.783 6.66903C114.718 7.50391 115.186 8.85085 115.186 10.6876C115.186 11.3889 115.052 11.9566 114.774 12.3796C114.507 12.8026 114.151 13.0921 113.705 13.2256C113.271 13.3704 112.737 13.4705 112.125 13.5373C111.512 13.6041 110.9 13.6264 110.31 13.593C109.709 13.5707 109.063 13.593 108.373 13.682C107.661 13.7711 107.071 13.9047 106.581 14.1051Z" fill="#999999"/>
<path fill-rule="evenodd" clip-rule="evenodd" d="M126.529 5.39922C126.518 5.43261 126.518 5.59959 126.54 5.90015C126.563 6.20071 126.563 6.49013 126.529 6.77956C126.496 7.05786 126.429 7.35841 126.34 7.68123C126.24 8.00405 126.051 8.26009 125.75 8.44933C125.449 8.63857 125.071 8.73875 124.615 8.73875C123.947 8.73875 123.423 8.76101 123.056 8.80554C122.689 8.85007 122.366 8.97252 122.077 9.16176C121.787 9.351 121.598 9.62929 121.498 9.97437C121.397 10.3306 121.353 10.8093 121.353 11.4104V19.0802C121.064 18.8687 120.685 18.7128 120.218 18.5904C119.75 18.4679 119.349 18.3789 119.026 18.3121C118.704 18.2453 118.403 18.056 118.158 17.7444C117.902 17.4327 117.78 16.9763 117.78 16.3863V9.96325C117.78 9.86306 117.78 9.74061 117.791 9.5625C117.802 9.39553 117.824 9.16176 117.88 8.87233C117.924 8.57178 118.002 8.28235 118.114 7.98179C118.225 7.68123 118.392 7.38068 118.615 7.05786C118.837 6.73503 119.104 6.45674 119.427 6.22297C119.75 5.97807 120.162 5.78883 120.663 5.62185C121.164 5.46601 121.731 5.37695 122.355 5.37695H124.726H125.561H125.839H126.529V5.39922Z" fill="#999999"/>
<path fill-rule="evenodd" clip-rule="evenodd" d="M132.741 5.85531C133.52 5.53249 134.834 5.37665 136.659 5.37665C137.55 5.37665 138.318 5.53249 138.952 5.83305C139.587 6.13361 140.054 6.48982 140.344 6.87943C140.633 7.26905 140.845 7.71432 141.001 8.22638C141.156 8.72731 141.234 9.10579 141.257 9.35069C141.268 9.59559 141.268 9.80709 141.257 9.9852V18.7014C138.863 19.0242 137.672 18.2784 137.672 16.475V13.8368C137.683 11.4546 137.572 10.0075 137.338 9.48427C137.104 8.96108 136.348 8.69391 135.09 8.66052C134.31 8.66052 133.531 8.80523 132.741 9.09466V16.475C132.774 17.4324 132.474 18.0557 131.839 18.3563C131.205 18.6569 130.314 18.7682 129.145 18.7014V0C129.435 0.211504 129.813 0.333952 130.281 0.367347C130.748 0.411874 131.149 0.423006 131.472 0.423006C131.795 0.423006 132.084 0.589987 132.34 0.935072C132.596 1.28016 132.719 1.83674 132.719 2.6271V5.85531H132.741Z" fill="#999999"/>
<path fill-rule="evenodd" clip-rule="evenodd" d="M147.735 11.5772C148.002 11.3879 148.448 11.2543 149.06 11.1987C149.672 11.1319 150.251 11.0985 150.785 11.0874C151.32 11.0762 151.798 10.9649 152.21 10.7534C152.622 10.5419 152.822 10.1968 152.811 9.72929C152.811 9.31741 152.489 8.97232 151.832 8.69403C150.919 8.31555 150.04 8.28216 149.171 8.59385C147.98 9.03912 147.501 10.0298 147.735 11.5772ZM147.858 14.1041C147.858 14.605 148.103 14.9724 148.604 15.2173C149.093 15.4622 149.728 15.5957 150.485 15.5957C151.242 15.6069 151.988 15.5735 152.711 15.4955C153.435 15.4288 154.125 15.3397 154.771 15.2395C155.416 15.1393 155.784 15.0948 155.884 15.0948C155.95 16.4863 155.672 17.4659 155.06 18.0447C154.448 18.6236 153.212 18.913 151.364 18.913C148.815 18.913 146.934 18.3898 145.743 17.3546C144.54 16.3193 143.95 14.516 143.95 11.9556C143.95 10.6755 144.117 9.59571 144.44 8.70517C144.763 7.81462 145.242 7.14672 145.876 6.67918C146.511 6.21165 147.212 5.88883 147.98 5.69959C148.748 5.51035 149.661 5.41016 150.696 5.41016C152.678 5.41016 154.125 5.83317 155.06 6.66805C155.995 7.50294 156.463 8.84988 156.463 10.6866C156.463 11.3879 156.329 11.9556 156.062 12.3787C155.795 12.8017 155.438 13.0911 154.993 13.2247C154.559 13.3694 154.025 13.4696 153.412 13.5364C152.8 13.6031 152.188 13.6254 151.598 13.592C150.997 13.5697 150.351 13.592 149.661 13.6811C148.949 13.7701 148.359 13.9037 147.858 14.1041Z" fill="#999999"/>
<path fill-rule="evenodd" clip-rule="evenodd" d="M162.763 16.475C162.797 17.4324 162.496 18.0557 161.861 18.3563C161.227 18.6569 160.336 18.7682 159.168 18.7014V0C159.457 0.211504 159.836 0.333952 160.303 0.367347C160.771 0.411874 161.171 0.423006 161.494 0.423006C161.817 0.423006 162.106 0.589987 162.362 0.935072C162.618 1.28016 162.741 1.83674 162.741 2.6271V16.475H162.763Z" fill="#999999"/>
<path fill-rule="evenodd" clip-rule="evenodd" d="M169.186 12.0115V15.4178C169.442 15.4957 169.721 15.5625 170.01 15.6071C170.299 15.6516 170.678 15.6961 171.123 15.7295C171.568 15.7629 171.98 15.7184 172.37 15.5848C172.748 15.4623 173.116 15.2731 173.472 15.0282C173.817 14.7833 174.095 14.4048 174.307 13.8816C174.518 13.3584 174.619 12.7239 174.619 11.9892C174.619 11.377 174.518 10.8538 174.318 10.4085C174.118 9.96324 173.884 9.61816 173.628 9.37326C173.372 9.12836 173.016 8.95025 172.581 8.83893C172.147 8.71648 171.791 8.64969 171.502 8.62743C171.212 8.60516 170.856 8.61629 170.422 8.66082C169.988 8.70535 169.732 8.73875 169.631 8.76101C169.531 8.77214 169.387 8.80553 169.197 8.86119H169.175C169.175 8.85006 169.175 9.90758 169.186 12.0115ZM169.186 24.0004C168.897 23.7889 168.518 23.6665 168.051 23.6331C167.583 23.5885 167.182 23.5774 166.86 23.5774C166.537 23.5774 166.236 23.4104 165.991 23.0653C165.735 22.7203 165.613 22.1637 165.613 21.3733V7.21369C165.624 7.20256 165.702 7.10237 165.836 6.9354C165.969 6.76842 166.092 6.63484 166.203 6.53466C166.314 6.43447 166.526 6.30089 166.826 6.12278C167.127 5.94467 167.461 5.81109 167.828 5.7109C168.195 5.61072 168.685 5.52167 169.309 5.44374C169.932 5.36582 170.633 5.32129 171.413 5.32129C173.873 5.32129 175.632 5.85561 176.7 6.91313C177.769 7.98178 178.303 9.7406 178.303 12.223C178.303 13.4252 178.114 14.4605 177.724 15.3399C177.346 16.2193 176.823 16.8983 176.177 17.3659C175.531 17.8334 174.841 18.1785 174.118 18.4011C173.394 18.6126 172.626 18.7239 171.813 18.7239C170.711 18.7239 169.832 18.6126 169.186 18.39V24.0004Z" fill="#999999"/>
<path fill-rule="evenodd" clip-rule="evenodd" d="M47.5827 6.08915C47.5827 6.08915 39.1448 0.612316 31.7311 3.05017C29.2487 3.86279 27.2004 5.46577 25.5641 7.22459C24.6513 8.21532 23.5937 10.4862 20.4212 11.7218C19.7199 11.989 18.9407 12.2784 17.9499 12.4009C16.5139 12.579 15.5789 12.9241 14.3766 13.2357C13.8757 13.3693 12.8961 13.6476 12.8182 13.0242C12.7737 12.6012 13.2189 12.4899 13.5974 12.3786C14.41 12.1448 14.9889 11.9333 15.7904 11.6662C16.0687 11.566 16.7922 11.4547 16.7032 11.1652C16.6475 10.9649 16.1688 11.0873 15.9462 11.1318C14.5436 11.4101 13.2635 11.6439 11.8386 11.8665C11.2597 11.9556 10.5696 12.0669 10.4694 11.5548C10.3247 10.809 11.2597 10.7868 11.9054 10.6754C13.0965 10.4639 14.0427 10.2636 15.2004 10.0298C15.3785 9.9964 15.6345 9.98527 15.7124 9.7849C15.5009 9.64018 15.2004 9.72923 14.9555 9.77376C13.4082 9.9964 11.7829 10.2413 10.2801 10.553C9.77921 10.6532 9.26715 10.6977 9.16696 10.2524C8.98886 9.48433 9.97958 9.36189 10.6141 9.20604C11.9722 8.87209 13.1187 8.7719 14.6438 8.51587C14.8553 8.48248 15.3228 8.42682 15.3228 8.25984C15.3228 8.01494 14.5881 8.09287 14.3432 8.09287C13.2301 8.09287 12.4174 8.18192 11.1929 8.30437C10.525 8.37116 9.66789 8.58266 9.58997 7.99268C9.46752 7.05761 11.3043 7.1578 12.1058 7.06874C13.6197 6.89063 15.0668 6.83498 16.4583 6.47876C17.0928 6.31178 17.9499 6.10028 18.0056 5.65501C18.0613 5.1986 17.4267 4.68654 17.2152 4.54183C16.8702 4.31919 16.4471 4.16335 16.0909 3.89619C15.7458 3.62902 15.3896 3.32846 15.2115 2.98338C15.0111 2.6049 14.9444 1.74776 15.5009 1.71436C15.7236 1.70323 16.2356 2.13737 16.4026 2.24869C16.7254 2.46019 17.0149 2.61603 17.282 2.80527C17.7718 3.16149 18.1058 3.5511 18.5956 3.796C18.9629 3.97411 19.3303 4.10769 19.6865 4.29693C20.0316 4.47504 20.3767 4.65315 20.7217 4.86465C21.078 5.07616 21.4008 5.56595 21.8683 5.82198C24.4509 7.18006 25.8201 4.63088 25.1967 4.30806C21.9574 2.62717 16.6364 0.411939 13.4861 0.73476C5.72725 1.52512 0.228149 9.95187 0.228149 9.95187C0.228149 9.95187 7.30796 17.1096 15.0668 16.3192C19.0631 15.9185 22.4583 13.4806 24.8071 11.2209C24.7514 11.143 27.0001 8.47135 29.7385 7.50288C31.0966 7.02422 31.9426 6.47876 33.0558 5.92217C33.5122 5.6884 34.4138 5.1986 34.6253 5.79972C34.7589 6.20046 34.347 6.41197 34.002 6.60121C33.2561 7.00195 32.7329 7.32477 32.0094 7.77004C31.7645 7.92589 31.0743 8.19305 31.219 8.46021C31.3192 8.63832 31.7533 8.42682 31.9648 8.32663C33.2784 7.75891 34.4806 7.24685 35.8164 6.72366C36.3619 6.51216 37.0187 6.25612 37.219 6.73479C37.5196 7.43609 36.6068 7.65873 35.9945 7.90362C34.8702 8.36003 33.9908 8.7719 32.911 9.23944C32.7441 9.31736 32.4992 9.37302 32.4658 9.58452C32.6995 9.67357 32.9778 9.52886 33.2116 9.42868C34.6699 8.87209 36.2172 8.29324 37.6086 7.66986C38.0762 7.45836 38.566 7.31364 38.7664 7.72552C39.1114 8.43795 38.1652 8.77191 37.5753 9.06133C36.3174 9.67358 35.2264 10.0298 33.7904 10.5975C33.5901 10.6754 33.1448 10.8201 33.1782 10.9983C33.2339 11.232 33.9352 10.9983 34.1689 10.9537C35.2598 10.72 36.0279 10.4528 37.2079 10.0743C37.8424 9.86282 38.6328 9.47321 38.8443 10.0409C39.1671 10.9203 37.3415 11.232 36.5845 11.4881C35.1374 11.989 33.7459 12.3452 32.4546 12.9908C31.8647 13.2914 31.0743 13.681 31.1188 14.1263C31.1633 14.5938 31.8869 14.95 32.1318 15.0391C32.5103 15.1838 32.9667 15.2395 33.3674 15.4287C33.7571 15.6068 34.1801 15.8406 34.425 16.13C34.7033 16.4528 34.9482 17.2877 34.4027 17.4324C34.1912 17.4881 33.6012 17.1764 33.412 17.1096C33.0446 16.976 32.7329 16.887 32.4324 16.7534C31.8758 16.5196 31.475 16.1968 30.9407 16.0632C30.54 15.963 30.1615 15.9185 29.7719 15.8072C29.3934 15.707 29.0149 15.6068 28.6476 15.4732C28.258 15.3397 27.7459 15.1059 27.3229 14.7831C27.1782 14.6717 26.8999 14.4714 26.5771 14.5604C24.4954 14.605 22.436 15.7515 21.2783 17.7664C20.1429 19.7256 20.1429 22.0187 21.0668 23.8332C20.8776 22.464 21.1225 20.9946 21.8906 19.681C22.6141 18.4231 23.6828 17.5103 24.8962 16.976C28.0242 18.2116 32.4658 19.3137 36.5957 17.9556C44.0094 15.5066 47.5827 6.08915 47.5827 6.08915Z" fill="#999999"/>
</svg>
