<svg width="24" height="24" viewBox="0 0 24 24" fill="none" xmlns="http://www.w3.org/2000/svg"><path fill-rule="evenodd" clip-rule="evenodd" d="M4.69296 8.12373V2.30895C4.69296 2.0945 4.86681 1.92065 5.08126 1.92065H7.9935C8.20796 1.92065 8.3818 2.0945 8.3818 2.30895V4.56885" fill="#FFC9D0"/><path d="M4.69296 8.12373V2.30895C4.69296 2.0945 4.86681 1.92065 5.08126 1.92065H7.9935C8.20796 1.92065 8.3818 2.0945 8.3818 2.30895V4.56885" stroke="#FE4A64"/><path fill-rule="evenodd" clip-rule="evenodd" d="M1.38668 12.4134C1.23013 12.4127 1.0893 12.3181 1.02948 12.1735C0.969659 12.0288 1.00256 11.8623 1.11293 11.7513L11.7504 1.11388C11.8232 1.04097 11.922 1 12.0251 1C12.1282 1 12.227 1.04097 12.2998 1.11388L22.9373 11.7513C23.0476 11.8623 23.0805 12.0288 23.0207 12.1735C22.9609 12.3181 22.8201 12.4127 22.6635 12.4134H20.3337V23.0217C20.3337 23.2362 20.1599 23.41 19.9454 23.41H4.10477C3.699 23.41 3.71647 23.0502 3.71647 23.0502V12.4134H1.38668Z" fill="#FFC9D0" stroke="#FE4A64"/><path fill-rule="evenodd" clip-rule="evenodd" d="M8.93808 23.0263V15.509C8.93808 15.2898 9.10475 15.1121 9.31035 15.1121H14.7399C14.9455 15.1121 15.1121 15.2898 15.1121 15.509V23.0501" fill="#FFE6E9"/><path d="M8.93808 23.0263V15.509C8.93808 15.2898 9.10475 15.1121 9.31035 15.1121H14.7399C14.9455 15.1121 15.1121 15.2898 15.1121 15.509V23.0501" stroke="#FE4A64"/><path d="M13.2415 4.93896L17.6759 9.37334" stroke="#FE4A64" stroke-linecap="round"/></svg>