<svg width="35" height="26" viewBox="0 0 35 26" fill="none" xmlns="http://www.w3.org/2000/svg"><path fill-rule="evenodd" clip-rule="evenodd" d="M12.765 21.5457L13.4416 19.8956L12.3938 19.4583C12.5794 18.6744 12.5794 17.8579 12.3938 17.074L13.4498 16.645L12.7815 14.9949L11.7337 15.4239C11.3223 14.7398 10.7574 14.1608 10.0837 13.7326L10.5292 12.6848L8.8791 12L8.43358 13.0478C7.64916 12.8663 6.83365 12.8663 6.04922 13.0478L5.62021 12L3.97013 12.66L4.39915 13.7078C3.73535 14.1309 3.17216 14.6941 2.74908 15.3579L1.70128 14.9206L1.02475 16.5707L2.07255 17.008C1.89104 17.7924 1.89104 18.6079 2.07255 19.3923L1 19.8543L1.66003 21.5044L2.71608 21.0754C3.12753 21.7595 3.69243 22.3385 4.36615 22.7667L3.92063 23.8145L5.5707 24.4993L6.01622 23.4515C6.80065 23.633 7.61616 23.633 8.40058 23.4515L8.7966 24.4993L10.4467 23.8393L10.0177 22.7915C10.6815 22.3684 11.2446 21.8052 11.6677 21.1414L12.765 21.5457Z" fill="#FFC9D0" stroke="#FE4A64" stroke-linecap="round" stroke-linejoin="round"/><path fill-rule="evenodd" clip-rule="evenodd" d="M9.98452 19.4322C9.34636 20.9529 7.59646 21.6685 6.07562 21.0308C4.55478 20.393 3.83866 18.6433 4.47596 17.1223C5.11326 15.6013 6.86275 14.8847 8.38395 15.5215C9.11502 15.8276 9.69445 16.4117 9.99466 17.1452C10.2949 17.8787 10.2912 18.7014 9.98452 19.4322V19.4322Z" stroke="#FE4A64" stroke-linecap="round" stroke-linejoin="round"/><path fill-rule="evenodd" clip-rule="evenodd" d="M9.98452 19.4322C9.34636 20.9529 7.59646 21.6685 6.07562 21.0308C4.55478 20.393 3.83866 18.6433 4.47596 17.1223C5.11326 15.6013 6.86275 14.8847 8.38395 15.5215C9.11502 15.8276 9.69445 16.4117 9.99466 17.1452C10.2949 17.8787 10.2912 18.7014 9.98452 19.4322V19.4322Z" fill="#FFE5E9" stroke="#FE4A64" stroke-linecap="round" stroke-linejoin="round"/><path fill-rule="evenodd" clip-rule="evenodd" d="M7.90579 18.2776C7.90579 18.6512 7.6029 18.9541 7.22926 18.9541C6.85563 18.9541 6.55273 18.6512 6.55273 18.2776C6.55273 17.904 6.85563 17.6011 7.22926 17.6011C7.6029 17.6011 7.90579 17.904 7.90579 18.2776V18.2776Z" stroke="#FE4A64" stroke-linecap="round" stroke-linejoin="round"/><path fill-rule="evenodd" clip-rule="evenodd" d="M31.161 14.6617L31.2509 12.0936L29.6115 12.0306C29.4702 10.8788 29.0609 9.77654 28.4163 8.81163L29.6326 7.70099L27.8997 5.80966L26.6946 6.91615C25.794 6.19969 24.7381 5.70228 23.6103 5.46322L23.689 3.82446L21.1092 3.73039L21.0306 5.36915C19.8764 5.51888 18.7711 5.92928 17.7988 6.56908L16.6921 5.37043L14.7865 7.09189L15.8932 8.29054C15.2055 9.19576 14.7245 10.2395 14.4838 11.3486L12.8444 11.2856L12.7546 13.8537L14.3939 13.9167C14.5411 15.067 14.9499 16.168 15.5891 17.1356L14.367 18.2991L16.0887 20.1946L17.305 19.084C18.2056 19.8004 19.2615 20.2978 20.3893 20.5369L20.3107 22.1757L22.8904 22.2697L22.9691 20.631C24.1232 20.4812 25.2286 20.0708 26.2008 19.431L27.2628 20.6463L29.1684 18.9248L28.0617 17.7262C28.7494 16.821 29.2304 15.7772 29.4711 14.6681L31.161 14.6617Z" fill="#FFC9D0" stroke="#FE4A64" stroke-linecap="round" stroke-linejoin="round"/><path fill-rule="evenodd" clip-rule="evenodd" d="M26.333 13.2079C26.2302 15.582 24.2171 17.4287 21.8361 17.3331C19.4551 17.2376 17.6075 15.2358 17.7088 12.8617C17.8102 10.4875 19.8222 8.63965 22.2033 8.73389C23.3476 8.77918 24.4257 9.27611 25.2003 10.1153C25.9749 10.9544 26.3823 12.067 26.333 13.2079V13.2079Z" stroke="#FE4A64" stroke-linecap="round" stroke-linejoin="round"/><path fill-rule="evenodd" clip-rule="evenodd" d="M26.333 13.2079C26.2302 15.582 24.2171 17.4287 21.8361 17.3331C19.4551 17.2376 17.6075 15.2358 17.7088 12.8617C17.8102 10.4875 19.8222 8.63965 22.2033 8.73389C23.3476 8.77918 24.4257 9.27611 25.2003 10.1153C25.9749 10.9544 26.3823 12.067 26.333 13.2079V13.2079Z" fill="#FFE5E9" stroke="#FE4A64" stroke-linecap="round" stroke-linejoin="round"/><path fill-rule="evenodd" clip-rule="evenodd" d="M22.9367 12.6951C23.124 13.1995 22.8653 13.7608 22.3589 13.9488C21.8524 14.1369 21.2901 13.8804 21.1028 13.376C20.9155 12.8716 21.1742 12.3102 21.6806 12.1222C22.1871 11.9341 22.7494 12.1906 22.9367 12.6951V12.6951Z" stroke="#FE4A64" stroke-linecap="round" stroke-linejoin="round"/></svg>