<svg width="100" height="32" viewBox="0 0 100 32" fill="none" xmlns="http://www.w3.org/2000/svg">
<g clip-path="url(#clip0_1695_3244)">
<path d="M17.0497 31.9853C14.0174 32.1392 11.0286 31.1568 8.28217 29.4363C6.47867 28.3075 4.58087 27.7231 2.43164 27.7837C0.682021 27.8326 -0.266875 26.1874 0.515889 24.6237C0.758352 24.1399 1.03673 23.6783 1.24926 23.1753C1.74616 22.0021 1.98413 20.786 2.02454 19.5256C2.07693 17.8819 1.94672 16.2442 2.26102 14.5932C2.72349 12.1669 3.73525 10.0143 5.15111 8.02451C7.33028 4.96062 10.2503 2.79918 13.7151 1.35378C15.0651 0.791594 16.5004 0.509024 17.9462 0.239768C19.0628 0.0311688 20.1643 -0.013214 21.2793 0.00305974C24.1784 0.0444837 26.8679 0.82858 29.3569 2.28877C30.4465 2.92789 31.4942 3.64245 32.7574 3.93686C33.7227 4.16173 34.7076 4.51087 35.6774 4.3792C37.451 4.13954 38.5136 6.0332 37.5752 7.55997C36.4796 9.34416 36.0127 11.263 36.1788 13.3357C36.4437 16.6333 35.6071 19.7105 33.9996 22.5406C32.3922 25.3723 30.0693 27.6003 27.2451 29.2824C24.1949 31.0991 20.8992 32.0519 17.0497 31.9838V31.9853Z" fill="#999999"/>
<path d="M92.5544 2.7531C95.2799 2.7679 97.5458 3.72065 98.7192 6.25047C99.8822 8.75958 99.6711 11.2731 97.8317 13.4612C96.4847 15.0634 94.6019 15.6641 92.5619 15.6581C90.3618 15.6522 88.3547 15.0146 86.9793 13.1831C85.3599 11.0261 85.2461 8.62051 86.3192 6.25343C87.4043 3.85824 89.5221 2.86258 92.1069 2.75458C92.2566 2.74867 92.4062 2.75458 92.5559 2.75458L92.5544 2.7531ZM95.7049 9.19897C95.7049 7.20766 94.4103 5.82735 92.532 5.81996C90.6821 5.81256 89.35 7.18399 89.3425 9.10428C89.3351 11.1207 90.6177 12.5144 92.4796 12.5114C94.4058 12.5084 95.7034 11.1755 95.7049 9.19749V9.19897Z" fill="#999999"/>
<path d="M53.5165 22.8556C53.5165 21.1054 53.5344 19.3552 53.506 17.6066C53.4955 16.9793 53.7125 16.7071 54.3651 16.7233C56.2823 16.7707 58.2026 16.6568 60.1198 16.8195C62.1373 16.9911 63.7612 18.1628 64.1788 19.7858C64.6398 21.5833 63.9977 22.9961 62.3319 23.8468C61.4968 24.2729 61.4938 24.3039 62.1343 25.0052C62.5489 25.4579 63.0428 25.7893 63.6475 25.8987C64.1773 25.9949 64.33 26.2938 64.3075 26.7805C64.2851 27.2968 64.3075 27.8161 64.3 28.3324C64.2881 29.1638 64.1833 29.2718 63.3182 29.1712C61.1016 28.9123 59.4912 27.7406 58.3597 25.8766C58.231 25.665 58.1262 25.4416 58.0065 25.2256C57.9077 25.0466 57.7925 24.872 57.55 24.9253C57.2911 24.9815 57.3031 25.2079 57.3016 25.4017C57.2956 26.313 57.2611 27.2273 57.3075 28.1371C57.3435 28.8487 57.08 29.115 56.3616 29.0618C55.7166 29.0144 55.064 29.0174 54.4189 29.0618C53.735 29.1106 53.491 28.8561 53.503 28.1785C53.5359 26.4047 53.5135 24.6294 53.5135 22.8556H53.5165ZM57.2986 20.8317C57.2986 21.8801 57.8379 22.3708 58.9165 22.3037C59.1964 22.2875 59.4673 22.2357 59.7052 22.1025C60.1782 21.8377 60.5523 21.493 60.5479 20.8924C60.5434 20.311 60.238 19.9189 59.7546 19.6423C59.4702 19.4795 59.153 19.4159 58.8207 19.4144C57.0486 19.407 57.3225 19.3005 57.2971 20.8317H57.2986Z" fill="#999999"/>
<path d="M87.4567 22.7822C87.4567 21.0335 87.4746 19.2848 87.4462 17.5361C87.4357 16.9384 87.6288 16.6751 88.2544 16.7032C88.9758 16.7357 89.7002 16.7284 90.4216 16.7062C90.9739 16.6899 91.164 16.9296 91.155 17.4607C91.131 18.6915 91.1625 19.9239 91.143 21.1548C91.134 21.7199 91.3466 21.8916 91.9123 21.7998C92.8702 21.6445 93.8296 21.501 94.768 21.245C95.2275 21.1193 95.41 20.8737 95.3981 20.3988C95.3726 19.415 95.4115 18.4282 95.3846 17.4429C95.3696 16.8926 95.6046 16.6914 96.1389 16.7047C96.9112 16.7239 97.6835 16.7269 98.4558 16.7047C98.9287 16.6928 99.1383 16.8733 99.1368 17.3482C99.1338 18.4563 99.1607 19.5644 99.1622 20.6725C99.1667 23.1357 99.1667 25.599 99.1622 28.0622C99.1607 29.0239 99.1383 29.0401 98.146 29.0431C97.4485 29.0446 96.7496 29.0268 96.0536 29.0461C95.5732 29.0594 95.3846 28.8567 95.3906 28.3892C95.4041 27.1583 95.3696 25.9259 95.4011 24.6951C95.416 24.0841 95.1975 23.9687 94.6452 24.1492C93.7906 24.4288 92.9061 24.5826 92.0081 24.6374C91.372 24.6758 91.0891 24.9199 91.1325 25.602C91.1939 26.5591 91.1355 27.5222 91.155 28.4824C91.164 28.8922 91.0158 29.0594 90.5937 29.0475C89.8214 29.0268 89.0476 29.015 88.2769 29.052C87.6692 29.0801 87.4372 28.8685 87.4462 28.2501C87.4746 26.4275 87.4567 24.6048 87.4567 22.7822Z" fill="#999999"/>
<path d="M55.3709 9.16989C55.3709 10.9704 55.3559 12.7693 55.3799 14.5698C55.3873 15.1083 55.2047 15.3317 54.651 15.308C53.9041 15.277 53.1543 15.2725 52.4075 15.2992C51.8477 15.3199 51.6651 15.0861 51.6756 14.5535C51.6995 13.3463 51.6681 12.1376 51.6876 10.9289C51.6965 10.4126 51.5843 10.1877 51.0021 10.3889C50.1056 10.6996 49.1626 10.8594 48.2197 10.9201C47.5402 10.9644 47.4041 11.2707 47.431 11.8639C47.4714 12.7738 47.4235 13.6881 47.4475 14.5994C47.4609 15.1068 47.2634 15.311 46.747 15.2962C45.9253 15.2725 45.1007 15.271 44.2775 15.2962C43.8434 15.3095 43.7162 15.132 43.7177 14.7296C43.7327 11.0073 43.7417 7.28362 43.7342 3.56138C43.7342 3.08649 43.9512 2.96222 44.3673 2.96665C45.165 2.97405 45.9642 2.97849 46.762 2.96665C47.2753 2.95926 47.4594 3.18413 47.4504 3.68713C47.4265 4.89435 47.4774 6.10452 47.431 7.31025C47.4041 8.01594 47.6989 8.17719 48.326 8.04848C49.1791 7.87243 50.0352 7.70526 50.8928 7.55584C51.481 7.45375 51.728 7.16675 51.695 6.54687C51.6441 5.61335 51.7025 4.67391 51.6756 3.73743C51.6606 3.2152 51.8327 2.9489 52.3925 2.96665C53.1393 2.99032 53.8892 3.0066 54.636 2.98884C55.2062 2.97553 55.4008 3.18413 55.3888 3.7685C55.3499 5.56749 55.3754 7.36795 55.3739 9.16693L55.3709 9.16989Z" fill="#999999"/>
<path d="M80.6169 16.3494C82.3246 16.379 83.8721 16.7977 85.0171 18.1617C85.5873 18.8423 85.5484 19.008 84.7537 19.4237C84.5337 19.5391 84.3062 19.6427 84.0906 19.7654C83.4261 20.1383 82.8469 20.6058 82.2617 19.5332C81.91 18.8881 80.6378 18.8038 79.9149 19.1263C79.5452 19.292 79.3028 19.542 79.2893 19.9652C79.2758 20.3676 79.5108 20.6013 79.8476 20.7626C80.4388 21.0481 81.0868 21.1236 81.7169 21.2641C82.4937 21.4372 83.2854 21.5733 84.0398 21.8204C86.7757 22.7169 87.4178 26.016 85.2446 27.9097C82.8753 29.975 78.0141 29.7087 75.9068 27.3993C75.1181 26.5338 75.1435 26.38 76.1523 25.8666C76.6626 25.6077 77.176 25.3547 77.6789 25.081C78.0111 24.9005 78.1847 24.9597 78.3808 25.3029C79.0753 26.5249 80.9312 27.0575 82.1764 26.4229C82.5491 26.2335 82.8319 25.9642 82.8289 25.5115C82.8245 25.0736 82.5161 24.8561 82.1674 24.6964C81.5029 24.3946 80.7755 24.3265 80.0736 24.1623C79.4195 24.0084 78.755 23.8842 78.1174 23.6756C76.8332 23.2569 75.8365 22.5142 75.6554 21.0851C75.4428 19.4104 75.9382 18.0049 77.4589 17.0862C78.4242 16.5033 79.5003 16.3213 80.6198 16.3494H80.6169Z" fill="#999999"/>
<path d="M56.7733 9.18475C56.7733 7.40944 56.7912 5.63412 56.7628 3.86029C56.7538 3.26112 56.9454 3.03477 57.5725 3.04217C60.066 3.06732 62.5594 3.06436 65.0529 3.04365C65.6231 3.03921 65.8611 3.21822 65.8476 3.80555C65.7908 6.2614 66.2068 5.8871 63.7972 5.91965C62.8498 5.93297 61.9009 5.94332 60.955 5.91817C60.2441 5.89894 60.2994 6.36496 60.3189 6.81618C60.3383 7.2541 60.1543 7.81628 60.9385 7.8074C61.9862 7.79409 63.0339 7.82663 64.08 7.79852C64.6682 7.78225 64.9496 7.95682 64.9376 8.59002C64.8987 10.5843 65.1472 10.3283 63.197 10.3491C62.4741 10.3565 61.7497 10.3653 61.0268 10.3461C60.5329 10.3328 60.3159 10.5 60.3039 11.0266C60.2725 12.4247 60.2515 12.4247 61.642 12.4247C62.7645 12.4247 63.887 12.438 65.008 12.4217C65.5648 12.4143 65.8551 12.6141 65.8162 13.1999C65.7937 13.5431 65.8147 13.8893 65.8132 14.2355C65.8117 15.3525 65.8117 15.3673 64.7131 15.3717C62.3693 15.3821 60.024 15.354 57.6802 15.388C56.9469 15.3983 56.7418 15.1291 56.7583 14.4352C56.7987 12.6866 56.7718 10.9349 56.7718 9.18475H56.7733Z" fill="#999999"/>
<path d="M65.5123 22.9047C65.5123 21.1546 65.5348 19.4029 65.5019 17.6543C65.4899 16.9678 65.7054 16.6852 66.4403 16.6956C68.7841 16.7296 71.1294 16.7222 73.4732 16.7C74.1243 16.6941 74.467 16.8657 74.3907 17.5773C74.3458 17.9916 74.3532 18.4162 74.3862 18.8334C74.4326 19.4296 74.1587 19.5997 73.5929 19.5879C72.3462 19.5612 71.098 19.6041 69.8527 19.5731C69.2825 19.5583 69.0804 19.7787 69.1343 20.3113C69.1523 20.4814 69.1523 20.6575 69.1343 20.8291C69.0759 21.3691 69.296 21.5807 69.8572 21.5629C70.8794 21.5304 71.9032 21.5821 72.9239 21.5451C73.5555 21.5215 73.7501 21.7789 73.7456 22.3707C73.7321 24.3501 73.801 23.9877 72.1187 24.0158C71.321 24.0291 70.5217 24.0291 69.724 24.0158C69.3184 24.0084 69.1568 24.1623 69.1283 24.575C69.0176 26.161 69.0056 26.1595 70.6385 26.1595C71.7116 26.1595 72.7832 26.1787 73.8563 26.155C74.4071 26.1432 74.5927 26.3799 74.6226 26.8992C74.7484 29.0473 74.7588 29.0458 72.6111 29.0458C70.5412 29.0458 68.4698 29.0192 66.4014 29.0606C65.692 29.0754 65.4929 28.8121 65.5034 28.1597C65.5303 26.4095 65.5123 24.6593 65.5123 22.9092V22.9047Z" fill="#999999"/>
<path d="M48.1179 16.7311C49.3407 16.7311 50.562 16.7415 51.7848 16.7267C52.3221 16.7208 52.5571 16.9294 52.5287 17.4753C52.4987 18.0404 52.5062 18.61 52.5272 19.1766C52.5451 19.6796 52.3386 19.8853 51.8222 19.8764C50.6009 19.8572 49.3767 19.8927 48.1554 19.8631C47.5941 19.8498 47.4145 20.0569 47.425 20.5969C47.4594 22.4269 47.2693 22.1133 48.9726 22.1414C49.6206 22.1517 50.2702 22.1503 50.9182 22.1458C51.2879 22.1443 51.4765 22.3086 51.469 22.6799C51.469 22.705 51.472 22.7287 51.472 22.7539C51.4511 25.2689 51.7953 24.8399 49.5084 24.865C47.434 24.8887 47.434 24.8694 47.434 26.9332C47.434 27.4259 47.419 27.92 47.434 28.4127C47.4489 28.9083 47.187 29.0503 46.735 29.0429C45.9373 29.0281 45.1381 29.0148 44.3403 29.0488C43.8225 29.071 43.7237 28.8506 43.7267 28.389C43.7461 25.0854 43.7417 21.7804 43.7417 18.4768C43.7417 17.3111 44.3279 16.7282 45.5003 16.7282C46.3728 16.7282 47.2469 16.7282 48.1194 16.7282V16.7311H48.1179Z" fill="#999999"/>
<path d="M76.7345 9.12676C76.7345 7.35441 76.754 5.58205 76.724 3.8097C76.7136 3.20018 76.944 2.96051 77.5427 2.97234C78.2641 2.98862 78.9885 2.99306 79.7084 2.96347C80.3206 2.9398 80.5301 3.18538 80.5241 3.79195C80.4987 6.30253 80.5361 8.8146 80.4987 11.3252C80.4882 12.0442 80.7306 12.2735 81.4431 12.241C82.5117 12.1921 83.5848 12.2454 84.6549 12.2217C85.1818 12.2099 85.4497 12.3785 85.4287 12.9348C85.4063 13.5251 85.4138 14.1169 85.4287 14.7072C85.4407 15.1539 85.2416 15.3034 84.7971 15.3019C82.3321 15.2871 79.8656 15.2812 77.4005 15.3063C76.8378 15.3122 76.7315 15.0578 76.7345 14.5918C76.745 12.7706 76.739 10.9479 76.739 9.12676H76.736H76.7345Z" fill="#999999"/>
<path d="M67.0974 9.13219C67.0974 7.35836 67.1213 5.58453 67.0839 3.81217C67.0704 3.15531 67.3189 2.93191 67.952 2.9615C68.5985 2.99257 69.2481 2.99553 69.8947 2.9615C70.5607 2.926 70.8121 3.15679 70.8016 3.85064C70.7657 6.3627 70.8046 8.87477 70.7747 11.3868C70.7672 12.0186 70.9363 12.2715 71.6128 12.2405C72.7069 12.1916 73.8055 12.2464 74.9011 12.2183C75.4623 12.205 75.7407 12.381 75.7093 12.9728C75.6808 13.5379 75.6913 14.106 75.7033 14.6712C75.7138 15.1653 75.4444 15.2955 74.9953 15.294C72.5543 15.2851 70.1117 15.2822 67.6706 15.2999C67.1872 15.3029 67.0899 15.0913 67.0929 14.6726C67.1063 12.8263 67.0989 10.9785 67.0989 9.13071L67.0974 9.13219Z" fill="#999999"/>
</g>
<defs>
<clipPath id="clip0_1695_3244">
<rect width="99.2" height="32" fill="white" transform="translate(0.239136)"/>
</clipPath>
</defs>
</svg>
